<svg width="20" height="20" viewBox="0 0 20 20" fill="none" xmlns="http://www.w3.org/2000/svg">
<path fill-rule="evenodd" clip-rule="evenodd" d="M15.8332 17.5001C18.1344 17.5001 19.9998 15.6346 19.9998 13.3334C19.9998 11.0322 18.1344 9.16675 15.8332 9.16675C13.532 9.16675 11.6665 11.0322 11.6665 13.3334C11.6665 15.6346 13.532 17.5001 15.8332 17.5001ZM15.2082 12.7084V11.2501H16.4582V12.7084H17.9165V13.9584H16.4582V15.4167H15.2082V13.9584H13.7498V12.7084H15.2082Z" fill="#475569"/>
<path d="M2.49984 2.5C2.0396 2.5 1.6665 2.8731 1.6665 3.33333V16.6667C1.6665 17.1269 2.0396 17.5 2.49984 17.5H12.3719C11.1771 16.5064 10.4165 15.0087 10.4165 13.3333C10.4165 10.3418 12.8416 7.91667 15.8332 7.91667C16.7349 7.91667 17.5852 8.13703 18.3332 8.52684V5C18.3332 4.53976 17.9601 4.16667 17.4998 4.16667H9.99984L7.9165 2.5H2.49984Z" fill="#94A3B8"/>
</svg>
