<svg width="24" height="24" viewBox="0 0 24 24" fill="none" xmlns="http://www.w3.org/2000/svg">
<path d="M24 0H0V24H24V0Z" fill="white" fill-opacity="0.01"/>
<path fill-rule="evenodd" clip-rule="evenodd" d="M6 5C6 4.44772 6.44772 4 7 4H19C19.5523 4 20 4.44772 20 5V10C20 10.5523 19.5523 11 19 11H7C6.44772 11 6 10.5523 6 10V5Z" fill="#94A3B8"/>
<path fill-rule="evenodd" clip-rule="evenodd" d="M6 14C6 13.4477 6.44772 13 7 13H19C19.5523 13 20 13.4477 20 14V19C20 19.5523 19.5523 20 19 20H7C6.44772 20 6 19.5523 6 19V14Z" fill="#475569"/>
<path fill-rule="evenodd" clip-rule="evenodd" d="M3 22C2.44772 22 2 21.5523 2 21L2 3C2 2.44772 2.44772 2 3 2C3.55228 2 4 2.44772 4 3L4 21C4 21.5523 3.55228 22 3 22Z" fill="#475569"/>
</svg>
