<svg width="24" height="24" viewBox="0 0 24 24" fill="none" xmlns="http://www.w3.org/2000/svg">
<path d="M24 0H0V24H24V0Z" fill="white" fill-opacity="0.01"/>
<path fill-rule="evenodd" clip-rule="evenodd" d="M4 5C4 4.44772 4.44772 4 5 4H17C17.5523 4 18 4.44772 18 5V10C18 10.5523 17.5523 11 17 11H5C4.44772 11 4 10.5523 4 10V5Z" fill="#94A3B8"/>
<path fill-rule="evenodd" clip-rule="evenodd" d="M4 14C4 13.4477 4.44772 13 5 13H17C17.5523 13 18 13.4477 18 14V19C18 19.5523 17.5523 20 17 20H5C4.44772 20 4 19.5523 4 19V14Z" fill="#475569"/>
<path fill-rule="evenodd" clip-rule="evenodd" d="M21 22C20.4477 22 20 21.5523 20 21L20 3C20 2.44772 20.4477 2 21 2C21.5523 2 22 2.44772 22 3L22 21C22 21.5523 21.5523 22 21 22Z" fill="#475569"/>
</svg>
