<svg width="24" height="24" viewBox="0 0 24 24" fill="none" xmlns="http://www.w3.org/2000/svg">
<path d="M24 0H0V24H24V0Z" fill="white" fill-opacity="0.01"/>
<path fill-rule="evenodd" clip-rule="evenodd" d="M0 5C0 4.44772 0.447715 4 1 4H6C6.55228 4 7 4.44772 7 5V19C7 19.5523 6.55228 20 6 20H1C0.447715 20 0 19.5523 0 19V5Z" fill="#94A3B8"/>
<path fill-rule="evenodd" clip-rule="evenodd" d="M9 5C9 4.44772 9.44772 4 10 4H15C15.5523 4 16 4.44772 16 5V19C16 19.5523 15.5523 20 15 20H10C9.44772 20 9 19.5523 9 19V5Z" fill="#475569"/>
<path d="M19.94 8.5L19 9.44L21.1133 11.6665H16.5V12.9998H21.1133L19 14.9998L19.94 15.9398L23.6667 12.3331L19.94 8.5Z" fill="#475569"/>
</svg>
