<svg width="24" height="24" viewBox="0 0 24 24" fill="none" xmlns="http://www.w3.org/2000/svg">
<path d="M24 0H0V24H24V0Z" fill="white" fill-opacity="0.01"/>
<path fill-rule="evenodd" clip-rule="evenodd" d="M5 5C5 4.44772 5.44772 4 6 4H10C10.5523 4 11 4.44772 11 5V19C11 19.5523 10.5523 20 10 20H6C5.44772 20 5 19.5523 5 19V5Z" fill="#94A3B8"/>
<path fill-rule="evenodd" clip-rule="evenodd" d="M13 5C13 4.44772 13.4477 4 14 4H18C18.5523 4 19 4.44772 19 5V19C19 19.5523 18.5523 20 18 20H14C13.4477 20 13 19.5523 13 19V5Z" fill="#475569"/>
<path fill-rule="evenodd" clip-rule="evenodd" d="M2 22C2 21.4477 2.44772 21 3 21H21C21.5523 21 22 21.4477 22 22C22 22.5523 21.5523 23 21 23H3C2.44772 23 2 22.5523 2 22Z" fill="#475569"/>
<path fill-rule="evenodd" clip-rule="evenodd" d="M2 2C2 1.44772 2.44772 1 3 1H21C21.5523 1 22 1.44772 22 2C22 2.55228 21.5523 3 21 3H3C2.44772 3 2 2.55228 2 2Z" fill="#475569"/>
</svg>
