<svg width="24" height="24" viewBox="0 0 24 24" fill="none" xmlns="http://www.w3.org/2000/svg">
<path d="M24 0H0V24H24V0Z" fill="white" fill-opacity="0.01"/>
<path fill-rule="evenodd" clip-rule="evenodd" d="M2 6C2 5.44772 2.44772 5 3 5H8C8.55228 5 9 5.44772 9 6V18C9 18.5523 8.55228 19 8 19H3C2.44772 19 2 18.5523 2 18V6Z" fill="#94A3B8"/>
<path fill-rule="evenodd" clip-rule="evenodd" d="M11 6C11 5.44772 11.4477 5 12 5H17C17.5523 5 18 5.44772 18 6V18C18 18.5523 17.5523 19 17 19H12C11.4477 19 11 18.5523 11 18V6Z" fill="#475569"/>
<path fill-rule="evenodd" clip-rule="evenodd" d="M21 22C20.4477 22 20 21.5523 20 21L20 3C20 2.44772 20.4477 2 21 2C21.5523 2 22 2.44772 22 3L22 21C22 21.5523 21.5523 22 21 22Z" fill="#475569"/>
</svg>
