<svg width="20" height="20" viewBox="0 0 20 20" fill="none" xmlns="http://www.w3.org/2000/svg">
<path fill-rule="evenodd" clip-rule="evenodd" d="M3.5 1.5C2.94772 1.5 2.5 1.94772 2.5 2.5V17.5C2.5 18.0523 2.94772 18.5 3.5 18.5H16.5C17.0523 18.5 17.5 18.0523 17.5 17.5V7.5L11.5 1.5H3.5ZM5 13.97H6.092L6.3485 12.944H7.6715L7.928 13.97H9.056L7.67 9.5H6.386L5 13.97ZM7.4645 12.116H6.5555L6.65 11.738C6.7598 11.3104 6.87516 10.8104 6.98 10.356L6.98001 10.356L6.992 10.304H7.016C7.0727 10.5195 7.12807 10.7524 7.18336 10.985L7.18337 10.985C7.24508 11.2446 7.30671 11.5038 7.37 11.738L7.4645 12.116ZM9.52494 13.97H10.5989V12.488H11.1209C12.0689 12.488 12.8849 12.02 12.8849 10.958C12.8849 9.854 12.0749 9.5 11.0969 9.5H9.52494V13.97ZM10.5989 11.642V10.352H11.0369C11.5529 10.352 11.8409 10.508 11.8409 10.958C11.8409 11.396 11.5889 11.642 11.0669 11.642H10.5989ZM14.7181 13.97H13.6441V9.5H14.7181V13.97Z" fill="#94A3B8"/>
<path d="M11.5 1.5L17.5 7.5H12.5C11.9477 7.5 11.5 7.05228 11.5 6.5V1.5Z" fill="#475569"/>
</svg>
