<svg width="20" height="20" viewBox="0 0 20 20" fill="none" xmlns="http://www.w3.org/2000/svg">
<path fill-rule="evenodd" clip-rule="evenodd" d="M13.6889 5.42731C13.7944 5.60718 13.9244 5.77669 14.0787 5.93103C14.2296 6.08189 14.3949 6.20944 14.5703 6.31368L13.3764 7.50761C14.3091 8.92439 14.1523 10.8478 12.9059 12.0942C11.6594 13.3406 9.73604 13.4975 8.31926 12.5647L7.0401 13.8439C7.33124 14.2977 7.50008 14.8375 7.50008 15.4167C7.50008 17.0275 6.19424 18.3333 4.58341 18.3333C2.97258 18.3333 1.66675 17.0275 1.66675 15.4167C1.66675 13.8058 2.97258 12.5 4.58341 12.5C5.16262 12.5 5.7024 12.6688 6.15621 12.96L7.40719 11.709C6.32718 10.2785 6.43896 8.23442 7.74252 6.93086C9.04608 5.6273 11.0901 5.51552 12.5207 6.59553L13.6889 5.42731ZM3.33341 15.4167C3.33341 16.107 3.89306 16.6667 4.58341 16.6667C5.27377 16.6667 5.83341 16.107 5.83341 15.4167C5.83341 14.7263 5.27377 14.1667 4.58341 14.1667C3.89306 14.1667 3.33341 14.7263 3.33341 15.4167Z" fill="#475569"/>
<path fill-rule="evenodd" clip-rule="evenodd" d="M13.6924 5.43357C13.7973 5.61111 13.926 5.77847 14.0786 5.93102C14.2294 6.08188 14.3948 6.20943 14.5701 6.31367C15.5296 6.88402 16.7886 6.75647 17.6141 5.93102C18.5904 4.95471 18.5904 3.3718 17.6141 2.39549C16.6378 1.41918 15.0549 1.41918 14.0785 2.39549C13.2566 3.21745 13.1266 4.46938 13.6887 5.42729C13.6899 5.42939 13.6912 5.43148 13.6924 5.43357ZM15.2571 3.574C14.9316 3.89943 14.9316 4.42707 15.2571 4.75251C15.5825 5.07795 16.1101 5.07795 16.4356 4.75251C16.761 4.42707 16.761 3.89943 16.4356 3.574C16.1101 3.24856 15.5825 3.24856 15.2571 3.574Z" fill="#94A3B8"/>
<path d="M7.91014 6.77314L6.99173 5.96435C7.19692 5.37878 7.06547 4.70152 6.59737 4.23342C5.9465 3.58255 4.89123 3.58255 4.24035 4.23342C3.58948 4.88429 3.58948 5.93957 4.24035 6.59044C4.76128 7.11137 5.54125 7.21537 6.16561 6.90245L7.12633 7.7485C7.28828 7.45526 7.49362 7.17957 7.74235 6.93085C7.79701 6.87618 7.85297 6.82361 7.91014 6.77314Z" fill="#94A3B8"/>
<path d="M12.4778 12.4612C12.6274 12.3517 12.7705 12.2294 12.9057 12.0942C13.0723 11.9276 13.2194 11.749 13.347 11.5611L14.4295 12.5143C14.8297 12.2423 15.3129 12.0833 15.8332 12.0833C17.214 12.0833 18.3332 13.2026 18.3332 14.5833C18.3332 15.964 17.214 17.0833 15.8332 17.0833C14.4525 17.0833 13.3332 15.964 13.3332 14.5833C13.3332 14.1762 13.4305 13.7919 13.6032 13.4522L12.4778 12.4612Z" fill="#94A3B8"/>
</svg>
