<svg width="20" height="20" viewBox="0 0 20 20" fill="none" xmlns="http://www.w3.org/2000/svg">
<path fill-rule="evenodd" clip-rule="evenodd" d="M3.5 1.5C2.94772 1.5 2.5 1.94772 2.5 2.5V17.5C2.5 18.0523 2.94772 18.5 3.5 18.5H16.5C17.0523 18.5 17.5 18.0523 17.5 17.5V7.5L11.5 1.5H3.5ZM5 17.67H6.092L6.3485 16.644H7.6715L7.928 17.67H9.056L7.67 13.2H6.386L5 17.67ZM7.4645 15.816H6.5555L6.65 15.438C6.7598 15.0104 6.87516 14.5104 6.98 14.056L6.98001 14.056L6.992 14.004H7.016C7.0727 14.2195 7.12807 14.4524 7.18336 14.685L7.18337 14.685C7.24508 14.9446 7.30671 15.2038 7.37 15.438L7.4645 15.816ZM9.52494 17.67H10.5989V16.188H11.1209C12.0689 16.188 12.8849 15.72 12.8849 14.658C12.8849 13.554 12.0749 13.2 11.0969 13.2H9.52494V17.67ZM10.5989 15.342V14.052H11.0369C11.5529 14.052 11.8409 14.208 11.8409 14.658C11.8409 15.096 11.5889 15.342 11.0669 15.342H10.5989ZM14.7181 17.67H13.6441V13.2H14.7181V17.67Z" fill="#94A3B8"/>
<path d="M11.5 1.5L17.5 7.5H12.5C11.9477 7.5 11.5 7.05228 11.5 6.5V1.5Z" fill="#475569"/>
<path fill-rule="evenodd" clip-rule="evenodd" d="M2 10C1.44772 10 1 10.4477 1 11V18C1 18.5523 1.44772 19 2 19H18C18.5523 19 19 18.5523 19 18V12.5C19 11.9477 18.5523 11.5 18 11.5H8.41421C8.149 11.5 7.89464 11.3946 7.70711 11.2071L6.79289 10.2929C6.60536 10.1054 6.351 10 6.08579 10H2ZM5 17.67H6.092L6.3485 16.644H7.6715L7.928 17.67H9.056L7.67 13.2H6.386L5 17.67ZM7.4645 15.816H6.5555L6.65 15.438C6.75979 15.0104 6.87514 14.5105 6.97998 14.0561L6.97998 14.0561L6.992 14.004H7.016C7.07271 14.2195 7.12807 14.4524 7.18336 14.685C7.24508 14.9446 7.3067 15.2038 7.37 15.438L7.4645 15.816ZM9.52494 17.67H10.5989V16.188H11.1209C12.0689 16.188 12.8849 15.72 12.8849 14.658C12.8849 13.554 12.0749 13.2 11.0969 13.2H9.52494V17.67ZM10.5989 15.342V14.052H11.0369C11.5529 14.052 11.8409 14.208 11.8409 14.658C11.8409 15.096 11.5889 15.342 11.0669 15.342H10.5989ZM14.7181 17.67H13.6441V13.2H14.7181V17.67Z" fill="#475569"/>
</svg>
