<svg width="24" height="24" viewBox="0 0 24 24" fill="none" xmlns="http://www.w3.org/2000/svg">
<path fill-rule="evenodd" clip-rule="evenodd" d="M19 2H4C3.44772 2 3 2.28085 3 2.62729V7.01831H20V2.62729C20 2.28085 19.5523 2 19 2ZM9.89124 18.0781C9.89124 19.1196 10.1152 20.1087 10.5176 21H4C3.44772 21 3 20.5523 3 20V16H10.1998C9.99917 16.6573 9.89124 17.3551 9.89124 18.0781ZM20 10.9694H17C14.5788 10.9694 12.4403 12.1798 11.1567 14.0286H3V9.07178H20V10.9694Z" fill="#94A3B8"/>
<path fill-rule="evenodd" clip-rule="evenodd" d="M19.3695 12C18.2979 12 17.4293 12.8685 17.4293 13.9402C17.4293 13.9735 17.4399 14.0039 17.4415 14.0372L14.3978 15.5651C14.0613 15.2817 13.6353 15.1043 13.1609 15.1043C12.0892 15.1043 11.2207 15.9729 11.2207 17.0445C11.2207 18.1162 12.0892 18.9847 13.1609 18.9847C13.6353 18.9847 14.0613 18.8074 14.3978 18.5239L17.4415 20.0518C17.4399 20.0852 17.4293 20.1155 17.4293 20.1488C17.4293 21.2205 18.2979 22.089 19.3695 22.089C20.4412 22.089 21.3097 21.2205 21.3097 20.1488C21.3097 19.0772 20.4412 18.2086 19.3695 18.2086C18.8951 18.2086 18.4691 18.386 18.1326 18.6694L15.089 17.1415C15.0905 17.1082 15.1011 17.0779 15.1011 17.0445C15.1011 17.0112 15.0905 16.9808 15.089 16.9475L18.1326 15.4196C18.4691 15.703 18.8951 15.8804 19.3695 15.8804C20.4412 15.8804 21.3097 15.0118 21.3097 13.9402C21.3097 12.8685 20.4412 12 19.3695 12Z" fill="#94A3B8"/>
</svg>
