<svg width="32" height="32" viewBox="0 0 32 32" fill="none" xmlns="http://www.w3.org/2000/svg">
<path d="M25.8 13.3868C24.8933 8.78683 20.8533 5.3335 16 5.3335C12.1467 5.3335 8.8 7.52016 7.13333 10.7202C3.12 11.1468 0 14.5468 0 18.6668C0 23.0802 3.58667 26.6668 8 26.6668H25.3333C29.0133 26.6668 32 23.6802 32 20.0002C32 16.4802 29.2667 13.6268 25.8 13.3868ZM25.3333 24.0002H8C5.05333 24.0002 2.66667 21.6135 2.66667 18.6668C2.66667 15.9335 4.70667 13.6535 7.41333 13.3735L8.84 13.2268L9.50667 11.9602C10.7733 9.52016 13.2533 8.00016 16 8.00016C19.4933 8.00016 22.5067 10.4802 23.1867 13.9068L23.5867 15.9068L25.6267 16.0535C27.7067 16.1868 29.3333 17.9335 29.3333 20.0002C29.3333 22.2002 27.5333 24.0002 25.3333 24.0002ZM13.3333 18.9068L10.5467 16.1202L8.66667 18.0002L13.3333 22.6668L21.3467 14.6535L19.4667 12.7735L13.3333 18.9068Z" fill="#16A34A"/>
</svg>
