<svg width="24" height="24" viewBox="0 0 24 24" fill="none" xmlns="http://www.w3.org/2000/svg">
<path fill-rule="evenodd" clip-rule="evenodd" d="M13 3H11V4.98401C10.4277 5.06485 9.87736 5.21406 9.35753 5.42312L8.36603 3.70577L6.63397 4.70577L7.62628 6.42449C7.17931 6.77561 6.77561 7.17931 6.42449 7.62628L4.70577 6.63397L3.70577 8.36603L5.42312 9.35753C5.21406 9.87736 5.06485 10.4277 4.98401 11H3V13H4.98401C5.06485 13.5723 5.21406 14.1226 5.42312 14.6425L3.70577 15.634L4.70577 17.366L6.4245 16.3737C6.77561 16.8207 7.17931 17.2244 7.62628 17.5755L6.63397 19.2942L8.36603 20.2942L9.35753 18.5769C9.87736 18.7859 10.4277 18.9351 11 19.016V21H13V19.016C13.5723 18.9351 14.1226 18.7859 14.6425 18.5769L15.634 20.2942L17.366 19.2942L16.3737 17.5755C16.8207 17.2244 17.2244 16.8207 17.5755 16.3737L19.2942 17.366L20.2942 15.634L18.5769 14.6425C18.7859 14.1226 18.9351 13.5723 19.016 13H21V11H19.016C18.9351 10.4277 18.7859 9.87736 18.5769 9.35753L20.2942 8.36603L19.2942 6.63397L17.5755 7.62628C17.2244 7.17931 16.8207 6.77561 16.3737 6.4245L17.366 4.70577L15.634 3.70577L14.6425 5.42312C14.1226 5.21406 13.5723 5.06485 13 4.98401V3ZM12 17C14.7614 17 17 14.7614 17 12C17 9.23858 14.7614 7 12 7C9.23858 7 7 9.23858 7 12C7 14.7614 9.23858 17 12 17Z" fill="#94A3B8"/>
<circle cx="12" cy="12" r="3" fill="#94A3B8"/>
</svg>
