<svg width="24" height="24" viewBox="0 0 24 24" fill="none" xmlns="http://www.w3.org/2000/svg">
<path fill-rule="evenodd" clip-rule="evenodd" d="M11.3234 16.4118L12.8551 17.6901C13.2367 22.305 7.59263 23.3342 5.3335 20.1934C9.15594 20.5101 7.78679 16.4493 11.3234 16.4118ZM21.1133 5.46279C21.5455 5.09863 22.1552 5.56927 21.9636 6.06236L21.9071 6.17346C21.6176 6.66494 18.1927 12.4779 17.0542 14.2643C16.2783 15.4835 15.7789 15.766 14.5824 16.2573L13.725 16.606L12.3251 15.4393L12.5126 14.531C12.7648 13.3294 12.9463 12.7785 13.8614 11.8857L14.2474 11.5238C16.0929 9.82777 21.1133 5.46279 21.1133 5.46279Z" fill="#94A3B8"/>
<path fill-rule="evenodd" clip-rule="evenodd" d="M18.3226 15.3593C20.6117 18.2944 17.5897 21.3324 13.3303 21.9051L13.101 21.9334L13.1393 21.8967C13.806 21.1726 14.5585 19.9401 14.541 18.0743L15.2162 17.7993C16.491 17.2722 17.3419 16.8215 18.3226 15.3593ZM11.9193 2.00037C15.2835 1.97287 17.9009 3.48535 18.7342 5.32532L15.4436 8.21559C14.3957 9.14254 13.4307 10.0051 12.8835 10.5161C11.2669 12.0261 11.1227 13.0369 10.761 14.776C8.5119 15.0135 7.61024 16.5493 7.05525 17.4943C6.33026 18.7293 5.69861 18.7968 4.35029 18.4393C2.90115 16.7193 2.01949 14.5027 2.00033 12.0769C1.95616 6.55447 6.39943 2.0462 11.9193 2.00037ZM6.18193 10.9644C5.26361 10.9736 4.52196 11.7227 4.53112 12.6435C4.53612 13.5644 5.28611 14.3044 6.20693 14.2977C7.12858 14.2919 7.87024 13.5385 7.86191 12.6185C7.85691 11.6994 7.10358 10.9586 6.18193 10.9644ZM7.85107 5.96614C6.92859 5.97198 6.19026 6.7228 6.19776 7.64195C6.2036 8.56444 6.95609 9.30443 7.87774 9.29859C8.79439 9.28943 9.53771 8.54027 9.52771 7.61862C9.52438 6.69697 8.76939 5.95781 7.85107 5.96614ZM12.8485 4.29864C11.9252 4.30617 11.1844 5.05616 11.1952 5.97781C11.2002 6.8978 11.9527 7.63862 12.8735 7.63112C13.7935 7.62529 14.5318 6.8703 14.5285 5.95114C14.5193 5.03282 13.7668 4.29367 12.8485 4.29864Z" fill="#94A3B8"/>
</svg>
