<svg width="20" height="20" viewBox="0 0 20 20" fill="none" xmlns="http://www.w3.org/2000/svg">
<path d="M4.58268 7.50008C6.19351 7.50008 7.49935 6.19425 7.49935 4.58341C7.49935 2.97258 6.19351 1.66675 4.58268 1.66675C2.97185 1.66675 1.66602 2.97258 1.66602 4.58341C1.66602 6.19425 2.97185 7.50008 4.58268 7.50008Z" fill="#94A3B8"/>
<path d="M18.3327 15.0001L14.9993 11.6667L11.666 15.0001L14.9993 18.3334L18.3327 15.0001Z" fill="#94A3B8"/>
<path fill-rule="evenodd" clip-rule="evenodd" d="M12.0827 2.50008C12.0827 2.03984 12.4558 1.66675 12.916 1.66675H17.0827C17.5429 1.66675 17.916 2.03984 17.916 2.50008V6.66675C17.916 7.12698 17.5429 7.50008 17.0827 7.50008H15.8327V12.5001L14.9993 11.6667L14.166 12.5001V7.50008H12.916C12.4558 7.50008 12.0827 7.12698 12.0827 6.66675V5.41675H7.37857C7.45715 5.1527 7.49935 4.87299 7.49935 4.58341C7.49935 4.29384 7.45715 4.01413 7.37857 3.75008H12.0827V2.50008ZM13.7493 3.33341H16.2493V5.83341H13.7493V3.33341Z" fill="#475569"/>
<path fill-rule="evenodd" clip-rule="evenodd" d="M12.4993 14.1667H7.49935V12.9167C7.49935 12.4565 7.12625 12.0834 6.66602 12.0834H5.41602V7.3793C5.15197 7.45788 4.87225 7.50008 4.58268 7.50008C4.29311 7.50008 4.01339 7.45788 3.74935 7.3793V12.0834H2.49935C2.03911 12.0834 1.66602 12.4565 1.66602 12.9167V17.0834C1.66602 17.5437 2.03911 17.9167 2.49935 17.9167H6.66602C7.12625 17.9167 7.49935 17.5437 7.49935 17.0834V15.8334H12.4993L11.666 15.0001L12.4993 14.1667ZM3.33268 16.2501V13.7501H5.83268V16.2501H3.33268Z" fill="#475569"/>
</svg>
