<svg width="40" height="40" viewBox="0 0 40 40" fill="none" xmlns="http://www.w3.org/2000/svg">
<path d="M14.857 19.9164L12.5 22.2735L18.3926 28.166L28.9992 17.5594L26.6421 15.2024L18.3926 23.452L14.857 19.9164Z" fill="#8CADFF"/>
<path fill-rule="evenodd" clip-rule="evenodd" d="M4.99967 5C4.0792 5 3.33301 5.74619 3.33301 6.66667V33.3333C3.33301 34.2538 4.0792 35 4.99967 35H34.9997C35.9202 35 36.6663 34.2538 36.6663 33.3333V10C36.6663 9.07953 35.9202 8.33333 34.9997 8.33333H19.9997L15.833 5H4.99967ZM12.4997 22.2734L14.8567 19.9163L18.3922 23.4519L26.6418 15.2023L28.9988 17.5593L18.3922 28.1659L12.4997 22.2734Z" fill="#DEE9FF"/>
</svg>
