<svg width="20" height="20" viewBox="0 0 20 20" fill="none" xmlns="http://www.w3.org/2000/svg">
<path d="M2.59432 15.833C2.54443 16.1985 2.82853 16.5241 3.19743 16.5241H4.74893C5.05417 16.5241 5.31221 16.298 5.35235 15.9954L5.87069 12.0878C5.91082 11.7853 6.16886 11.5592 6.4741 11.5592H8.86607C9.16359 11.5592 9.41751 11.3441 9.46647 11.0507L9.69794 9.66324C9.75985 9.29219 9.47372 8.95437 9.09754 8.95437H7.23394C6.85742 8.95437 6.57121 8.61599 6.63367 8.24469L6.90825 6.61253C6.95756 6.31944 7.21131 6.10481 7.50852 6.10481H10.2609C10.5703 6.10481 10.8305 5.87271 10.8657 5.56532L11.0245 4.17791C11.0658 3.81667 10.7833 3.5 10.4197 3.5H5.34027C4.73154 3.5 4.21638 3.94962 4.13406 4.55275L2.59432 15.833Z" fill="#475569"/>
<path d="M15.226 9.53999C15.9797 9.53999 16.5811 9.74355 17.0299 10.1507C17.4873 10.5493 17.716 11.1261 17.716 11.8809C17.716 12.1608 17.6863 12.4449 17.627 12.7333L17.3654 15.9267C17.3384 16.2563 17.063 16.51 16.7323 16.51H15.4731C15.1656 16.51 14.9228 16.2489 14.9452 15.9422L15.1624 12.9623C15.281 12.3092 15.4928 11.4611 14.4341 11.4611C13.3754 11.4611 12.8352 12.4257 12.6343 13.3694L12.4553 15.9193C12.4319 16.252 12.1552 16.51 11.8216 16.51H10.6051C10.2848 16.51 10.0378 16.2278 10.0804 15.9103L10.8577 10.1135C10.8929 9.85068 11.1172 9.65449 11.3823 9.65449H12.82C13.02 9.65449 13.1702 9.83703 13.1317 10.0332L13.0662 10.3669C13.3627 10.0871 13.6972 9.87926 14.0699 9.74355C14.4425 9.60785 14.8279 9.53999 15.226 9.53999Z" fill="#94A3B8"/>
</svg>
