<svg width="44" height="44" viewBox="0 0 44 44" fill="none" xmlns="http://www.w3.org/2000/svg">
<path d="M0 12C0 5.37258 5.37258 0 12 0H42C43.1046 0 44 0.895431 44 2V32C44 38.6274 38.6274 44 32 44H12C5.37258 44 0 38.6274 0 32V12Z" fill="#F97316"/>
<path d="M0 12C0 5.37258 5.37258 0 12 0H42C43.1046 0 44 0.895431 44 2V32C44 38.6274 38.6274 44 32 44H12C5.37258 44 0 38.6274 0 32V12Z" fill="url(#paint0_linear)"/>
<mask id="mask0" mask-type="alpha" maskUnits="userSpaceOnUse" x="0" y="0" width="44" height="44">
<path d="M0 12C0 5.37258 5.37258 0 12 0H42C43.1046 0 44 0.895431 44 2V32C44 38.6274 38.6274 44 32 44H12C5.37258 44 0 38.6274 0 32V12Z" fill="white"/>
</mask>
<g mask="url(#mask0)">
<g style="mix-blend-mode:multiply" opacity="0.15">
<path d="M-20.3076 22C-20.3076 9.84974 -10.4579 0 1.69235 0C13.8426 0 23.6924 9.84974 23.6924 22C23.6924 34.1503 13.8426 44 1.69235 44C-10.4579 44 -20.3076 34.1503 -20.3076 22Z" fill="#F97316"/>
</g>
<g style="mix-blend-mode:multiply" opacity="0.15">
<path d="M0 44C0 31.8497 9.84974 22 22 22C34.1503 22 44 31.8497 44 44C44 56.1503 34.1503 66 22 66C9.84974 66 0 56.1503 0 44Z" fill="#F97316"/>
</g>
</g>
<path opacity="0.65" fill-rule="evenodd" clip-rule="evenodd" d="M11.5 16.1667V31.5001C11.5 32.0524 11.9477 32.5001 12.5 32.5001H23.6519C23.3397 31.7855 23.1665 30.9963 23.1665 30.1667C23.1665 26.945 25.7782 24.3333 28.9998 24.3333C29.8295 24.3333 30.6187 24.5065 31.3333 24.8188V16.1667H11.5ZM13.8332 19.6668H23.1665V22.0002H13.8332V19.6668ZM13.8333 24.3334H20.8333V26.6667H13.8333V24.3334Z" fill="white"/>
<path fill-rule="evenodd" clip-rule="evenodd" d="M11.5 10.3333H31.3333V16.1666H11.5V10.3333Z" fill="white"/>
<path fill-rule="evenodd" clip-rule="evenodd" d="M29.0002 34.8333C31.5775 34.8333 33.6668 32.744 33.6668 30.1667C33.6668 27.5893 31.5775 25.5 29.0002 25.5C26.4228 25.5 24.3335 27.5893 24.3335 30.1667C24.3335 32.744 26.4228 34.8333 29.0002 34.8333ZM28.5627 27.8333V30.1667C28.5627 30.2827 28.6088 30.394 28.6908 30.476L30.4408 32.226L31.0595 31.6073L29.4377 29.9854V27.8333H28.5627Z" fill="white"/>
<defs>
<linearGradient id="paint0_linear" x1="22" y1="0" x2="22" y2="44" gradientUnits="userSpaceOnUse">
<stop stop-color="#FDBA74"/>
<stop offset="1" stop-color="#FB923C"/>
</linearGradient>
</defs>
</svg>
