<svg width="24" height="24" viewBox="0 0 24 24" fill="none" xmlns="http://www.w3.org/2000/svg">
<path d="M14.7084 18H9.29052C9.4539 18.5572 9.63828 19.0708 9.83953 19.5336C10.243 20.4617 10.6848 21.118 11.0992 21.5211C11.5066 21.9174 11.8087 22 11.9995 22C12.1902 22 12.4924 21.9174 12.8997 21.5211C13.3141 21.118 13.7559 20.4617 14.1594 19.5336C14.3606 19.0708 14.545 18.5572 14.7084 18Z" fill="#94A3B8"/>
<path d="M9.15265 6.5C9.34746 5.74762 9.57941 5.06464 9.83953 4.46636C10.243 3.53833 10.6848 2.88201 11.0992 2.4789C11.5066 2.0826 11.8087 2 11.9995 2C12.1902 2 12.4924 2.0826 12.8997 2.4789C13.3141 2.88201 13.7559 3.53833 14.1594 4.46636C14.4195 5.06464 14.6515 5.74762 14.8463 6.5H9.15265Z" fill="#94A3B8"/>
<path d="M7.60729 6.5H3.64648C4.94824 4.52698 6.93028 3.0424 9.25857 2.38029C8.57162 3.41779 8.00248 4.83407 7.60729 6.5Z" fill="#94A3B8"/>
<path d="M7.7331 18H3.99873C5.29314 19.7233 7.13134 21.0148 9.25857 21.6197C8.64143 20.6876 8.11937 19.4499 7.7331 18Z" fill="#94A3B8"/>
<path d="M16.2658 18H20.0002C18.7058 19.7233 16.8676 21.0148 14.7404 21.6197C15.3575 20.6876 15.8796 19.4499 16.2658 18Z" fill="#94A3B8"/>
<path d="M20.3524 6.5H16.3916C15.9964 4.83407 15.4273 3.41779 14.7404 2.38029C17.0686 3.0424 19.0507 4.52698 20.3524 6.5Z" fill="#94A3B8"/>
<path fill-rule="evenodd" clip-rule="evenodd" d="M3 8C2.44772 8 2 8.44772 2 9V15.5C2 16.0523 2.44772 16.5 3 16.5H21C21.5523 16.5 22 16.0523 22 15.5V9C22 8.44772 21.5523 8 21 8H3ZM11 9L8 12H9.5V15H11V9ZM13 9.5H14.5V12.5H16L13 15.5V9.5Z" fill="#475569"/>
</svg>
