<svg width="48" height="24" viewBox="0 0 48 24" fill="none" xmlns="http://www.w3.org/2000/svg">
<rect x="0.5" y="0.5" width="47" height="23" rx="1.5" fill="white" stroke="#E2E8F0"/>
<rect x="8" y="5" width="23.2728" height="6" fill="#E2E8F0"/>
<rect x="34" y="5" width="6" height="14" fill="#CBD5E1"/>
<rect x="8" y="13.0004" width="23.2728" height="6" fill="#CBD5E1"/>
<g clip-path="url(#clip0_7637_14579)">
<path d="M18.6106 6.69L18.2373 6.37L16.9258 7.99999L18.2373 9.62999L18.6106 9.30999L17.5561 7.99999L18.6106 6.69ZM18.424 8.24999H18.9088V7.74999H18.424V8.24999ZM20.8482 7.74999H20.3634V8.24999H20.8482V7.74999ZM19.3937 8.24999H19.8785V7.74999H19.3937V8.24999ZM21.0349 6.37L20.6615 6.69L21.7161 7.99999L20.6615 9.30999L21.0349 9.62999L22.3464 7.99999L21.0349 6.37Z" fill="url(#paint0_linear_7637_14579)"/>
</g>
<defs>
<linearGradient id="paint0_linear_7637_14579" x1="16.9258" y1="7.99997" x2="22.3464" y2="7.99997" gradientUnits="userSpaceOnUse">
<stop stop-color="#638AFF"/>
<stop offset="1" stop-color="#375FF3"/>
</linearGradient>
<clipPath id="clip0_7637_14579">
<rect width="5.81819" height="6" fill="white" transform="translate(16.7271 5)"/>
</clipPath>
</defs>
</svg>
