<svg width="40" height="40" viewBox="0 0 40 40" fill="none" xmlns="http://www.w3.org/2000/svg">
<path d="M5 5C5 3.89543 5.89543 3 7 3H23L35 15V35C35 36.1046 34.1046 37 33 37H7C5.89543 37 5 36.1046 5 35V5Z" fill="#94A3B8"/>
<g clip-path="url(#clip0_7330_18129)">
<path d="M17.5001 28.3333H22.5001V23.3333H25.8334L20.0001 17.5L14.1667 23.3333H17.5001V28.3333ZM14.1667 30H25.8334V31.6667H14.1667V30Z" fill="#475569"/>
</g>
<path d="M23 3L35 15H25C23.8954 15 23 14.1046 23 13V3Z" fill="#475569"/>
<defs>
<clipPath id="clip0_7330_18129">
<rect width="20" height="20" fill="white" transform="translate(10 15)"/>
</clipPath>
</defs>
</svg>
