<svg width="72" height="72" viewBox="0 0 72 72" fill="none" xmlns="http://www.w3.org/2000/svg">
<path d="M31.2 1.2C31.2 0.537258 31.7372 0 32.4 0H56.4V24C56.4 24.6627 55.8627 25.2 55.2 25.2H31.2V1.2Z" fill="#638AFF"/>
<rect x="9.6001" y="3.59961" width="43.2" height="57.6" fill="#F0F6FF"/>
<rect x="16.8" y="16.7988" width="28.8" height="7.2" fill="#E5E9FC"/>
<rect x="16.8" y="8.40039" width="18" height="4.8" fill="url(#paint0_linear)"/>
<rect x="38.3999" y="8.40039" width="7.2" height="4.8" fill="url(#paint1_linear)"/>
<rect x="16.8" y="27.5996" width="28.8" height="7.2" fill="#E5E9FC"/>
<rect x="16.8" y="38.4004" width="28.8" height="7.2" fill="#E5E9FC"/>
<rect x="16.8" y="49.1992" width="28.8" height="7.2" fill="#E5E9FC"/>
<rect y="53.4004" width="19.2" height="0.6" fill="#ADBBF2"/>
<rect y="57" width="19.2" height="0.6" fill="#ADBBF2"/>
<circle opacity="0.2" cx="55.1999" cy="55.2004" r="16.8" fill="#9FB0F0"/>
<circle opacity="0.4" cx="55.1999" cy="55.2006" r="11.687" fill="#9FB0F0"/>
<circle cx="55.2001" cy="55.2008" r="5.4" fill="#9FB0F0"/>
<path d="M55.2 55.8008L66 60.3188V60.9068L61.896 62.4968L60.312 66.6008H59.724L55.2 55.8008Z" fill="url(#paint2_linear)" stroke="white" stroke-width="1.2"/>
<defs>
<linearGradient id="paint0_linear" x1="25.8" y1="8.40039" x2="25.8" y2="13.2004" gradientUnits="userSpaceOnUse">
<stop stop-color="#FCD34D"/>
<stop offset="1" stop-color="#FBBF24"/>
</linearGradient>
<linearGradient id="paint1_linear" x1="41.9999" y1="8.40039" x2="41.9999" y2="13.2004" gradientUnits="userSpaceOnUse">
<stop stop-color="#FCD34D"/>
<stop offset="1" stop-color="#FBBF24"/>
</linearGradient>
<linearGradient id="paint2_linear" x1="60.6" y1="55.8008" x2="60.6" y2="66.6008" gradientUnits="userSpaceOnUse">
<stop stop-color="#FCD34D"/>
<stop offset="1" stop-color="#FBBF24"/>
</linearGradient>
</defs>
</svg>
