<svg width="16" height="16" viewBox="0 0 16 16" fill="none" xmlns="http://www.w3.org/2000/svg">
<path d="M12.6667 4.66667L6 4.66667C5.26667 4.66667 4.66667 5.26667 4.66667 6L4.66667 12.6667C4.66667 13.4 5.26667 14 6 14L12.6667 14C13.4 14 14 13.4 14 12.6667L14 6C14 5.26667 13.4 4.66667 12.6667 4.66667ZM12.6667 6V7.33333H6V6L12.6667 6ZM8.66667 10V8.66667H10L10 10H8.66667ZM10 11.3333V12.6667L8.66667 12.6667V11.3333L10 11.3333ZM7.33333 10H6V8.66667H7.33333V10ZM11.3333 8.66667H12.6667L12.6667 10H11.3333L11.3333 8.66667ZM6 11.3333H7.33333V12.6667H6V11.3333ZM11.3333 12.6667V11.3333H12.6667V12.6667H11.3333ZM4 11.3333H3.33333C2.6 11.3333 2 10.7333 2 10L2 3.33333C2 2.6 2.6 2 3.33333 2L10 2C10.7333 2 11.3333 2.6 11.3333 3.33333V4H10V3.33333L3.33333 3.33333L3.33333 10H4L4 11.3333Z" fill="#475569"/>
</svg>
