<svg width="24" height="24" viewBox="0 0 24 24" fill="none" xmlns="http://www.w3.org/2000/svg">
<path fill-rule="evenodd" clip-rule="evenodd" d="M10.0084 10.538L15.3643 5.18209L17.9099 5.18209L17.9099 7.72767L16.7244 8.9132L16.6721 8.90345C16.3556 8.84441 16.0306 8.84789 15.7155 8.91368C14.3815 9.19215 13.5259 10.4993 13.8044 11.8332L12.554 13.0836C13.1868 14.6984 12.8508 16.6052 11.5459 17.91C9.78858 19.6674 6.93934 19.6674 5.18198 17.91C3.42462 16.1526 3.42462 13.3034 5.18198 11.546C6.4868 10.2412 8.39355 9.90522 10.0084 10.538ZM9.5095 13.5825C8.87684 12.9498 7.85108 12.9498 7.21842 13.5825C6.58575 14.2151 6.58575 15.2409 7.21842 15.8736C7.85108 16.5062 8.87684 16.5062 9.5095 15.8736C10.1422 15.2409 10.1422 14.2152 9.5095 13.5825Z" fill="#475569"/>
</svg>
