<svg width="120" height="120" viewBox="0 0 120 120" fill="none" xmlns="http://www.w3.org/2000/svg">
<path d="M60 2C60 0.89543 59.1046 0 58 0H18V40C18 41.1046 18.8954 42 20 42H60V2Z" fill="#638AFF"/>
<rect x="24" y="6" width="72" height="96" fill="#F0F6FF"/>
<rect x="32" y="21" width="26" height="12" fill="#E5E9FC"/>
<rect x="62" y="21" width="26" height="12" fill="#E5E9FC"/>
<rect x="32" y="36" width="26" height="12" fill="#E5E9FC"/>
<rect x="62" y="36" width="26" height="12" fill="#8CADFF"/>
<rect x="63.5" y="38.5" width="25" height="11" fill="#E5E9FC" stroke="#B5CCFF"/>
<rect x="32" y="14" width="25" height="3" fill="#E2E8F0"/>
<rect x="32" y="63" width="26" height="12" fill="#E5E9FC"/>
<rect x="62" y="63" width="26" height="12" fill="#E5E9FC"/>
<rect x="32" y="78" width="26" height="12" fill="#E5E9FC"/>
<rect x="62" y="78" width="26" height="12" fill="#E5E9FC"/>
<rect x="32" y="56" width="25" height="3" fill="#E2E8F0"/>
<rect x="87" y="93" width="32" height="1.71429" fill="#ADBBF2"/>
<rect x="87" y="103.286" width="32" height="1.71429" fill="#ADBBF2"/>
<rect x="87" y="98" width="32" height="1.71429" fill="#ADBBF2"/>
<rect x="87" y="108.286" width="32" height="1.71429" fill="#ADBBF2"/>
<path fill-rule="evenodd" clip-rule="evenodd" d="M99.8041 75.3328C100.146 73.7609 100.679 73.0109 101.179 72.8541C101.622 72.7149 102.029 73.0574 102.202 73.4667C102.279 73.6496 102.484 74.2851 101.867 74.7814C101.434 75.1301 100.727 75.3129 99.8041 75.3328ZM102.414 72.3912C102.051 72.0859 101.565 71.933 101.036 72.0991C100.437 72.2874 99.5378 72.9761 99.0369 75.3149C97.7534 75.2348 96.1591 74.9053 94.3654 74.3322C85.658 71.5507 72.6995 63.1502 71.1532 53.1842C71.1212 52.9738 70.9232 52.8525 70.7117 52.9114C70.5001 52.9709 70.3554 53.1899 70.3876 53.4C71.9781 63.6545 85.1851 72.2562 94.054 75.0898C95.3378 75.5002 97.1914 75.9972 98.894 76.1027C98.7735 76.8941 98.6937 77.8377 98.6722 78.9628C98.472 89.4198 111.427 93.5972 111.979 93.7697C112.175 93.831 112.403 93.7111 112.488 93.5013C112.573 93.2923 112.483 93.0715 112.287 93.0107C112.157 92.97 99.2564 88.8084 99.4466 78.8809C99.4675 77.8009 99.5435 76.8867 99.6594 76.1218C100.708 76.1055 101.65 75.8996 102.298 75.3785C103.02 74.7972 103.264 73.8945 102.918 73.0794C102.808 72.8189 102.634 72.5769 102.414 72.3912Z" fill="url(#paint0_linear_6879_19045)"/>
<g clip-path="url(#clip0_6879_19045)">
<path d="M67.0238 43.021L79.7992 57.7685L79.3635 58.6464L72.0585 57.979L66.6527 62.9321L65.7749 62.4964L67.0238 43.021Z" fill="url(#paint1_linear_6879_19045)" stroke="white" stroke-width="2"/>
</g>
<defs>
<linearGradient id="paint0_linear_6879_19045" x1="88.7389" y1="76.5599" x2="96.472" y2="67.3839" gradientUnits="userSpaceOnUse">
<stop stop-color="#FCD34D"/>
<stop offset="1" stop-color="#FBBF24"/>
</linearGradient>
<linearGradient id="paint1_linear_6879_19045" x1="75.0854" y1="47.0223" x2="67.0827" y2="63.1455" gradientUnits="userSpaceOnUse">
<stop stop-color="#FCD34D"/>
<stop offset="1" stop-color="#FBBF24"/>
</linearGradient>
<clipPath id="clip0_6879_19045">
<rect width="24" height="24" fill="white" transform="matrix(-0.895732 -0.444595 -0.444595 0.895732 87.168 49.6703)"/>
</clipPath>
</defs>
</svg>
