<svg width="16" height="16" viewBox="0 0 16 16" fill="none" xmlns="http://www.w3.org/2000/svg">
<g clip-path="url(#clip0_6862_16433)">
<path d="M10.3334 3.70855C10.3334 2.39684 9.28879 1.3335 8.00018 1.3335C7.91457 1.3335 7.82902 1.33829 7.74393 1.34786C6.46311 1.49193 5.53954 2.66563 5.68107 3.9694L5.83165 5.35657C5.9538 6.48186 6.88798 7.3335 8.00018 7.3335C9.11239 7.3335 10.0466 6.48186 10.1687 5.35657L10.3193 3.9694C10.3287 3.88278 10.3334 3.7957 10.3334 3.70855Z" fill="#475569"/>
<path d="M13.0002 14.4168L10.0002 8.66683H11.5895L13.0002 11.3706L14.4108 8.66683H16.0001L13.0002 14.4168Z" fill="#475569"/>
<path d="M8.70891 8.35406C8.47819 8.34045 8.2417 8.3335 7.99992 8.3335C4.66414 8.3335 2.33325 9.65629 2.33325 11.5503L2.33325 14.6668H12.0025L8.70891 8.35406Z" fill="#94A3B8"/>
</g>
<defs>
<clipPath id="clip0_6862_16433">
<rect width="16" height="16" fill="white"/>
</clipPath>
</defs>
</svg>
