<svg width="16" height="16" viewBox="0 0 16 16" fill="none" xmlns="http://www.w3.org/2000/svg">
<path d="M11.06 5.0535L6.66665 9.44683L4.27331 7.06016L3.33331 8.00016L6.66665 11.3335L12 6.00016L11.06 5.0535ZM7.99998 1.3335C4.31998 1.3335 1.33331 4.32016 1.33331 8.00016C1.33331 11.6802 4.31998 14.6668 7.99998 14.6668C11.68 14.6668 14.6666 11.6802 14.6666 8.00016C14.6666 4.32016 11.68 1.3335 7.99998 1.3335ZM7.99998 13.3335C5.05331 13.3335 2.66665 10.9468 2.66665 8.00016C2.66665 5.0535 5.05331 2.66683 7.99998 2.66683C10.9466 2.66683 13.3333 5.0535 13.3333 8.00016C13.3333 10.9468 10.9466 13.3335 7.99998 13.3335Z" fill="#16A34A"/>
</svg>
