<svg width="24" height="24" viewBox="0 0 24 24" fill="none" xmlns="http://www.w3.org/2000/svg">
<g clip-path="url(#clip0_7882_19422)">
<path d="M7 6.5L14 6.5V8.5L7 8.5V6.5Z" fill="#475569"/>
<path d="M7 10.5H11V12.5H7V10.5Z" fill="#475569"/>
<path d="M15 18.5C15 16.3 16.8 14.5 19 14.5C21.2 14.5 23 16.3 23 18.5C23 18.8667 22.7 19.1667 22.3333 19.1667C21.9667 19.1667 21.6667 18.8667 21.6667 18.5C21.6667 16.6667 20.1667 15.1667 18.3333 15.1667C16.5 15.1667 15 16.6667 15 18.5Z" fill="#475569"/>
<path d="M15 18.5C15 20.7 16.8 22.5 19 22.5C21.2 22.5 23 20.7 23 18.5C23 20.3333 21.5 21.8333 19.6667 21.8333C17.8333 21.8333 16.3333 20.3333 16.3333 18.5C16.3333 18.1333 16.0333 17.8333 15.6667 17.8333C15.3 17.8333 15 18.1333 15 18.5Z" fill="#475569"/>
<path fill-rule="evenodd" clip-rule="evenodd" d="M4 4.5C4 3.94772 4.44772 3.5 5 3.5L19 3.5C19.5523 3.5 20 3.94772 20 4.5V12.0764C19.674 12.0261 19.3401 12 19 12C15.4101 12 12.5 14.9101 12.5 18.5C12.5 20.5104 13.4127 22.3077 14.8464 23.5H5C4.44772 23.5 4 23.0523 4 22.5L4 4.5ZM7 6.5L14 6.5V8.5L7 8.5L7 6.5ZM7 10.5H11L11 12.5L7 12.5V10.5Z" fill="#94A3B8"/>
</g>
<defs>
<clipPath id="clip0_7882_19422">
<rect width="24" height="24" fill="white"/>
</clipPath>
</defs>
</svg>
