<svg width="16" height="16" viewBox="0 0 16 16" fill="none" xmlns="http://www.w3.org/2000/svg">
<g clip-path="url(#clip0_6862_16451)">
<path d="M9.89754 14.6668C8.94174 13.872 8.33325 12.6738 8.33325 11.3335C8.33325 10.2135 8.75814 9.19278 9.45551 8.42367C8.99699 8.36445 8.51022 8.3335 7.99992 8.3335C4.66414 8.3335 2.33325 9.65629 2.33325 11.5503L2.33325 14.6668H9.89754Z" fill="#94A3B8"/>
<path d="M10.3334 3.70855C10.3334 2.39684 9.28879 1.3335 8.00018 1.3335C7.91457 1.3335 7.82902 1.33829 7.74393 1.34786C6.46311 1.49193 5.53954 2.66563 5.68107 3.9694L5.83165 5.35657C5.9538 6.48186 6.88798 7.3335 8.00018 7.3335C9.11239 7.3335 10.0466 6.48186 10.1687 5.35657L10.3193 3.9694C10.3287 3.88278 10.3334 3.7957 10.3334 3.70855Z" fill="#475569"/>
<path fill-rule="evenodd" clip-rule="evenodd" d="M11.8757 8.00016L11.7087 8.84131C11.4303 8.94476 11.1728 9.0893 10.9467 9.27165L10.1245 8.993L9.33341 10.3407L9.99134 10.9025C9.96801 11.0432 9.95291 11.1864 9.95291 11.3335C9.95291 11.4806 9.96801 11.6238 9.99134 11.7645L9.33341 12.3263L10.1245 13.674L10.9467 13.3953C11.1728 13.5777 11.4303 13.7222 11.7087 13.8257L11.8757 14.6668L13.4578 14.6668L13.6248 13.8257C13.9032 13.7222 14.1607 13.5777 14.3868 13.3953L15.209 13.674L16.0001 12.3263L15.3422 11.7645C15.3655 11.6238 15.3806 11.4806 15.3806 11.3335C15.3806 11.1864 15.3655 11.0432 15.3422 10.9025L16.0001 10.3407L15.209 8.993L14.3868 9.27165C14.1607 9.0893 13.9032 8.94476 13.6248 8.84131L13.4578 8.00016H11.8757ZM13.7779 11.3334C13.7779 11.9471 13.2804 12.4446 12.6668 12.4446C12.0531 12.4446 11.5556 11.9471 11.5556 11.3334C11.5556 10.7198 12.0531 10.2223 12.6668 10.2223C13.2804 10.2223 13.7779 10.7198 13.7779 11.3334Z" fill="#475569"/>
</g>
<defs>
<clipPath id="clip0_6862_16451">
<rect width="16" height="16" fill="white"/>
</clipPath>
</defs>
</svg>
