<svg width="120" height="120" viewBox="0 0 120 120" fill="none" xmlns="http://www.w3.org/2000/svg">
<path d="M91.4447 13.6162L90.2325 14.8284L91.4447 16.0406L91.0406 16.4446L89.8284 15.2324L88.6162 16.4446L88.2122 16.0406L89.4244 14.8284L88.2122 13.6162L88.6162 13.2121L89.8284 14.4243L91.0406 13.2121L91.4447 13.6162Z" fill="url(#paint0_linear)"/>
<path d="M60 6C60 4.89543 60.8954 4 62 4H102V44C102 45.1046 101.105 46 100 46H60V6Z" fill="#638AFF"/>
<rect x="24" y="10" width="72" height="96" fill="#F1F5F9"/>
<rect x="36" y="32" width="48" height="12" fill="#E5E9FC"/>
<rect x="36" y="18" width="30" height="8" fill="#FCD34D"/>
<rect x="72" y="18" width="12" height="8" fill="#FCD34D"/>
<rect x="36" y="50" width="48" height="12" fill="#E5E9FC"/>
<rect x="36" y="68" width="48" height="12" fill="#E5E9FC"/>
<rect x="36" y="86" width="48" height="12" fill="#E5E9FC"/>
<rect x="8" y="81" width="32" height="1" fill="#ADBBF2"/>
<rect x="8" y="88" width="32" height="1" fill="#ADBBF2"/>
<rect x="8" y="95" width="32" height="1" fill="#ADBBF2"/>
<path d="M76 87.7273C76 82.9073 79.9073 79 84.7273 79H106.545C107.349 79 108 79.6512 108 80.4545V102.273C108 107.093 104.093 111 99.2727 111H84.7273C79.9073 111 76 107.093 76 102.273V87.7273Z" fill="#F59E0B"/>
<path d="M76 87.7273C76 82.9073 79.9073 79 84.7273 79H106.545C107.349 79 108 79.6512 108 80.4545V102.273C108 107.093 104.093 111 99.2727 111H84.7273C79.9073 111 76 107.093 76 102.273V87.7273Z" fill="url(#paint1_linear)"/>
<mask id="mask0" mask-type="alpha" maskUnits="userSpaceOnUse" x="76" y="79" width="32" height="32">
<path d="M76 87.7273C76 82.9073 79.9073 79 84.7273 79H106.545C107.349 79 108 79.6512 108 80.4545V102.273C108 107.093 104.093 111 99.2727 111H84.7273C79.9073 111 76 107.093 76 102.273V87.7273Z" fill="white"/>
</mask>
<g mask="url(#mask0)">
</g>
<path d="M80.3333 91.7273C80.3333 87.0914 84.0914 83.3333 88.7273 83.3333H110.545C111.165 83.3333 111.667 83.8353 111.667 84.4545V106.273C111.667 110.909 107.909 114.667 103.273 114.667H88.7273C84.0914 114.667 80.3333 110.909 80.3333 106.273V91.7273Z" stroke="url(#paint2_linear)" stroke-width="0.666667"/>
<rect x="83.2729" y="92.0908" width="17.4545" height="2.90909" rx="1.45455" fill="white"/>
<rect x="90.5454" y="102.273" width="17.4545" height="2.90909" rx="1.45455" transform="rotate(-90 90.5454 102.273)" fill="white"/>
<defs>
<linearGradient id="paint0_linear" x1="88.4142" y1="13.4142" x2="91.2426" y2="16.2426" gradientUnits="userSpaceOnUse">
<stop stop-color="#A5B4FC"/>
<stop offset="1" stop-color="#818CF8"/>
</linearGradient>
<linearGradient id="paint1_linear" x1="92" y1="79" x2="92" y2="111" gradientUnits="userSpaceOnUse">
<stop stop-color="#FCD34D"/>
<stop offset="1" stop-color="#FBBF24"/>
</linearGradient>
<linearGradient id="paint2_linear" x1="96" y1="83" x2="96" y2="115" gradientUnits="userSpaceOnUse">
<stop stop-color="#FCD34D"/>
<stop offset="1" stop-color="#FBBF24"/>
</linearGradient>
</defs>
</svg>
