<svg width="20" height="20" viewBox="0 0 20 20" fill="none" xmlns="http://www.w3.org/2000/svg">
<path d="M8.21461 1.85853C8.66426 1.76035 9.10836 2.04526 9.20655 2.4949C9.30473 2.94454 9.01982 3.38864 8.57018 3.48683C5.53405 4.14982 3.33317 6.85102 3.33317 10C3.33317 13.6819 6.31794 16.6667 9.99984 16.6667C13.6817 16.6667 16.6665 13.6819 16.6665 10C16.6665 8.08234 15.8535 6.29762 14.4548 5.0403C14.1125 4.73263 14.0844 4.20573 14.3921 3.86345C14.6998 3.52117 15.2267 3.49312 15.569 3.80079C17.3158 5.37097 18.3332 7.60449 18.3332 10C18.3332 14.6024 14.6022 18.3334 9.99984 18.3334C5.39746 18.3334 1.6665 14.6024 1.6665 10C1.6665 6.06351 4.41696 2.68782 8.21461 1.85853Z" fill="url(#paint0_angular_11135_1421)"/>
<defs>
<radialGradient id="paint0_angular_11135_1421" cx="0" cy="0" r="1" gradientUnits="userSpaceOnUse" gradientTransform="translate(9.99984 10.0863) scale(8.33333 8.24709)">
<stop offset="0.75" stop-color="white"/>
<stop offset="0.75" stop-color="#324558" stop-opacity="0.01"/>
</radialGradient>
</defs>
</svg>
