<svg width="16" height="16" viewBox="0 0 16 16" fill="none" xmlns="http://www.w3.org/2000/svg">
<path d="M14.6667 3.33337V4.66671H12.6667V6.66671H11.3333V4.66671H9.33333V3.33337H11.3333V1.33337H12.6667V3.33337H14.6667ZM12.6667 12.6667H3.33333V3.33337H7.33333V2.00004H3.33333C2.6 2.00004 2 2.60004 2 3.33337V12.6667C2 13.4 2.6 14 3.33333 14H12.6667C13.4 14 14 13.4 14 12.6667V8.66671H12.6667V12.6667ZM10 8.66671V11.3334H11.3333V8.66671H10ZM7.33333 11.3334H8.66667V6.00004H7.33333V11.3334ZM6 11.3334V7.33337H4.66667V11.3334H6Z" fill="#475569"/>
</svg>
