<svg width="32" height="32" viewBox="0 0 32 32" fill="none" xmlns="http://www.w3.org/2000/svg">
<path fill-rule="evenodd" clip-rule="evenodd" d="M16.0001 3.3197C18.5506 3.3197 20.6182 5.38728 20.6182 7.93778C20.6182 8.10723 20.6089 8.27655 20.5903 8.44498L20.2922 11.1422C20.0505 13.3302 18.2015 14.9861 16.0001 14.9861C13.7988 14.9861 11.9498 13.3302 11.708 11.1422L11.41 8.44498C11.1299 5.90991 12.9579 3.62776 15.4929 3.34764C15.6614 3.32903 15.8307 3.3197 16.0001 3.3197Z" fill="white"/>
<path opacity="0.65" fill-rule="evenodd" clip-rule="evenodd" d="M6.66667 27.7797V22.6776C6.66667 20.6689 7.95201 18.8856 9.85761 18.2504L13.6667 16.9807H18.3333L21.6471 18.0853L20.562 18.8737L21.3789 19.9982C21.1186 20.2726 20.8936 20.5809 20.7113 20.9158L19.3901 20.4865L18.899 21.9982L20.2204 22.4276C20.1963 22.6133 20.1838 22.8027 20.1838 22.995C20.1838 23.1873 20.1963 23.3767 20.2204 23.5624L18.899 23.9918L19.3901 25.5035L20.7113 25.0742C20.8936 25.4091 21.1186 25.7174 21.3789 25.9918L20.562 27.1163L21.8479 28.0506L22.6642 26.9269C23.0023 27.0884 23.3645 27.2075 23.7439 27.2775V28.0623C21.3573 28.4394 18.7421 28.6474 16 28.6474C12.6352 28.6474 9.46145 28.3342 6.66667 27.7797ZM22.6642 19.0631L22.0519 18.2202L22.1424 18.2504C22.5582 18.389 22.9444 18.5822 23.2942 18.8206C23.0766 18.8853 22.8661 18.9667 22.6642 19.0631Z" fill="white"/>
<path fill-rule="evenodd" clip-rule="evenodd" d="M23.7439 18.7125V17.3234H25.3333V18.7125C25.7127 18.7825 26.0749 18.9016 26.413 19.0631L27.2294 17.9394L28.5153 18.8737L27.6983 19.9982C27.9586 20.2726 28.1836 20.5809 28.3659 20.9158L29.6871 20.4865L30.1782 21.9982L28.8568 22.4276C28.881 22.6133 28.8934 22.8027 28.8934 22.995C28.8934 23.1873 28.881 23.3767 28.8568 23.5624L30.1782 23.9918L29.6871 25.5035L28.3659 25.0742C28.1836 25.4091 27.9586 25.7174 27.6983 25.9918L28.5153 27.1163L27.2294 28.0506L26.413 26.9269C26.0749 27.0884 25.7127 27.2075 25.3333 27.2775V28.6667H23.7439V27.2775C23.3645 27.2075 23.0023 27.0884 22.6642 26.9269L21.8478 28.0506L20.5619 27.1163L21.3789 25.9918C21.1186 25.7174 20.8936 25.4091 20.7113 25.0742L19.3901 25.5035L18.899 23.9918L20.2204 23.5624C20.1962 23.3767 20.1838 23.1873 20.1838 22.995C20.1838 22.8027 20.1962 22.6133 20.2204 22.4276L18.899 21.9982L19.3901 20.4865L20.7113 20.9158C20.8936 20.5809 21.1186 20.2726 21.3789 19.9982L20.5619 18.8737L21.8478 17.9394L22.6642 19.0631C23.0023 18.9016 23.3645 18.7825 23.7439 18.7125ZM24.5386 25.5008C25.9225 25.5008 27.0443 24.3789 27.0443 22.995C27.0443 21.6111 25.9225 20.4893 24.5386 20.4893C23.1547 20.4893 22.0328 21.6111 22.0328 22.995C22.0328 24.3789 23.1547 25.5008 24.5386 25.5008Z" fill="white"/>
</svg>
