<svg width="20" height="20" viewBox="0 0 20 20" fill="none" xmlns="http://www.w3.org/2000/svg">
<path fill-rule="evenodd" clip-rule="evenodd" d="M9.99983 2.07483C11.5939 2.07483 12.8861 3.36707 12.8861 4.96112C12.8861 5.06703 12.8803 5.17286 12.8687 5.27813L12.6824 6.96388C12.5313 8.3314 11.3757 9.36635 9.99983 9.36635C8.62399 9.36635 7.46837 8.3314 7.31727 6.96388L7.13099 5.27813C6.95592 3.69371 8.09842 2.26736 9.68283 2.09229C9.7881 2.08066 9.89392 2.07483 9.99983 2.07483Z" fill="#475569"/>
<path fill-rule="evenodd" clip-rule="evenodd" d="M4.16602 17.3623V14.1735C4.16602 12.918 4.96935 11.8035 6.16035 11.4065L8.54102 10.6129H11.4577L13.5288 11.3033L12.8506 11.796L13.3612 12.4988C13.1985 12.6703 13.0578 12.863 12.9439 13.0723L12.1182 12.804L11.8112 13.7488L12.6371 14.0172C12.622 14.1333 12.6142 14.2516 12.6142 14.3718C12.6142 14.492 12.622 14.6104 12.6371 14.7265L11.8112 14.9948L12.1182 15.9396L12.9439 15.6713C13.0578 15.8807 13.1985 16.0733 13.3612 16.2449L12.8506 16.9477L13.6543 17.5316L14.1645 16.8293C14.3758 16.9302 14.6021 17.0047 14.8393 17.0484V17.5389C13.3476 17.7746 11.7131 17.9046 9.99935 17.9046C7.89635 17.9046 5.91275 17.7088 4.16602 17.3623ZM14.1645 11.9144L13.7818 11.3876L13.8383 11.4065C14.0982 11.4931 14.3396 11.6139 14.5582 11.7628C14.4222 11.8033 14.2907 11.8541 14.1645 11.9144Z" fill="#94A3B8"/>
<path fill-rule="evenodd" clip-rule="evenodd" d="M14.8406 11.6954V10.8271H15.834V11.6954C16.0711 11.7391 16.2975 11.8136 16.5088 11.9145L17.019 11.2122L17.8227 11.7961L17.3121 12.4989C17.4748 12.6704 17.6154 12.8631 17.7294 13.0724L18.5551 12.8041L18.8621 13.7489L18.0361 14.0173C18.0512 14.1334 18.059 14.2517 18.059 14.3719C18.059 14.4921 18.0512 14.6105 18.0361 14.7266L18.8621 14.9949L18.5551 15.9397L17.7294 15.6714C17.6154 15.8807 17.4748 16.0734 17.3121 16.2449L17.8227 16.9478L17.019 17.5317L16.5088 16.8294C16.2975 16.9303 16.0711 17.0047 15.834 17.0485V17.9167H14.8406V17.0485C14.6034 17.0047 14.3771 16.9303 14.1658 16.8294L13.6556 17.5317L12.8519 16.9478L13.3625 16.2449C13.1998 16.0734 13.0591 15.8807 12.9452 15.6714L12.1195 15.9397L11.8125 14.9949L12.6384 14.7266C12.6233 14.6105 12.6155 14.4921 12.6155 14.3719C12.6155 14.2517 12.6233 14.1334 12.6384 14.0173L11.8125 13.7489L12.1195 12.8041L12.9452 13.0724C13.0591 12.8631 13.1998 12.6704 13.3625 12.4989L12.8519 11.7961L13.6556 11.2122L14.1658 11.9145C14.3771 11.8136 14.6034 11.7391 14.8406 11.6954ZM15.3373 15.938C16.2022 15.938 16.9034 15.2369 16.9034 14.3719C16.9034 13.507 16.2022 12.8058 15.3373 12.8058C14.4723 12.8058 13.7712 13.507 13.7712 14.3719C13.7712 15.2369 14.4723 15.938 15.3373 15.938Z" fill="#475569"/>
</svg>
