<svg width="20" height="20" viewBox="0 0 20 20" fill="none" xmlns="http://www.w3.org/2000/svg">
<path opacity="0.65" fill-rule="evenodd" clip-rule="evenodd" d="M14.7916 13.5417V11.6667H13.5416V13.5417H11.6666V14.7917H13.5416V16.6667H14.7916V14.7917H16.6666V13.5417H14.7916Z" fill="#475569"/>
<path fill-rule="evenodd" clip-rule="evenodd" d="M2.5 11.4985C2.5 11.0853 2.8345 10.75 3.2485 10.75H8.5015C8.91475 10.75 9.25 11.0845 9.25 11.4985V16.7515C9.25 17.1649 8.91489 17.5 8.5015 17.5H3.2485C3.04992 17.5002 2.85943 17.4214 2.71901 17.281C2.5786 17.1406 2.4998 16.9501 2.5 16.7515V11.4985Z" fill="#475569"/>
<path fill-rule="evenodd" clip-rule="evenodd" d="M10.75 3.2485C10.75 2.83525 11.0845 2.5 11.4985 2.5H16.7515C17.1648 2.5 17.5 2.8345 17.5 3.2485V8.5015C17.5 8.91489 17.1649 9.25 16.7515 9.25H11.4985C11.2999 9.2502 11.1094 9.1714 10.969 9.03099C10.8286 8.89057 10.7498 8.70008 10.75 8.5015V3.2485Z" fill="#475569"/>
<path fill-rule="evenodd" clip-rule="evenodd" d="M2.5 3.2485C2.5 2.83525 2.8345 2.5 3.2485 2.5H8.5015C8.91475 2.5 9.25 2.8345 9.25 3.2485V8.5015C9.25 8.91489 8.91489 9.25 8.5015 9.25H3.2485C3.04992 9.2502 2.85943 9.1714 2.71901 9.03099C2.5786 8.89057 2.4998 8.70008 2.5 8.5015V3.2485Z" fill="#475569"/>
</svg>
