<svg width="16" height="16" fill="none" xmlns="http://www.w3.org/2000/svg"><path fill-rule="evenodd" clip-rule="evenodd" d="M3.274 13.525h9.013c.426 0 .639.22.639.656 0 .438-.213.657-.639.657H3.274c-.425 0-.638-.219-.638-.657 0-.437.213-.656.638-.656zM12.197 9.396H9.283V7.802c1.147-.492 1.992-1.813 1.906-3.309-.114-1.818-1.608-3.215-3.376-3.158-1.768.058-3.172 1.551-3.173 3.373 0 1.407.729 2.533 1.912 3.096V9.4H3.638c-.435 0-.85.177-1.16.495A1.714 1.714 0 002 11.087v1.311c0 .209.164.378.366.378h11.103c.1 0 .194-.04.26-.11a.385.385 0 00.106-.268v-1.313c0-.447-.172-.877-.479-1.193a1.615 1.615 0 00-1.159-.495z" fill="#475569"/></svg>