<svg width="24" height="24" viewBox="0 0 24 24" fill="none" xmlns="http://www.w3.org/2000/svg">
<path fill-rule="evenodd" clip-rule="evenodd" d="M13.9933 12H19.3889C19.3889 7.91923 16.0808 4.61111 12 4.61111C7.91923 4.61111 4.61111 7.91923 4.61111 12H10.0066L10.0017 12.0155C9.9891 12.0521 9.97743 12.0892 9.96678 12.1267L9.96438 12.1343H9.96463C9.91374 12.316 9.88652 12.5076 9.88652 12.7056C9.88652 13.8728 10.8328 14.8191 12 14.8191C13.1672 14.8191 14.1135 13.8728 14.1135 12.7056C14.1135 12.5076 14.0863 12.316 14.0355 12.1343L14.0343 12.1306C14.023 12.0905 14.0105 12.0509 13.997 12.0118L13.9933 12ZM12 21.5C6.75329 21.5 2.5 17.2467 2.5 12C2.5 6.75329 6.75329 2.5 12 2.5C17.2467 2.5 21.5 6.75329 21.5 12C21.5 17.2467 17.2467 21.5 12 21.5Z" fill="#94A3B8"/>
<path fill-rule="evenodd" clip-rule="evenodd" d="M9.96433 12.1343L9.96673 12.1267C9.97739 12.0892 9.98905 12.0521 10.0017 12.0155L12 5.66064L13.9969 12.0118C14.0105 12.0509 14.023 12.0905 14.0343 12.1305L14.0354 12.1343C14.0862 12.316 14.1134 12.5076 14.1134 12.7056C14.1134 13.8728 13.1672 14.819 12 14.819C10.8327 14.819 9.88647 13.8728 9.88647 12.7056C9.88647 12.5076 9.91369 12.316 9.96458 12.1343H9.96433Z" fill="#94A3B8"/>
</svg>
