<svg width="20" height="20" viewBox="0 0 20 20" fill="none" xmlns="http://www.w3.org/2000/svg">
<path fill-rule="evenodd" clip-rule="evenodd" d="M10 18.3333C7.68089 18.3333 5.55749 17.8478 4.16667 16.9278V11.1428C5.55749 12.0628 7.68089 12.5483 10 12.5483C12.3191 12.5483 14.4425 12.0628 15.8333 11.1428V16.9278C14.4425 17.8478 12.3191 18.3333 10 18.3333Z" fill="#94A3B8"/>
<path fill-rule="evenodd" clip-rule="evenodd" d="M4.1667 3.57971C4.17712 4.62984 6.78479 5.48008 10 5.48008C13.2152 5.48008 15.8229 4.62984 15.8333 3.57971L15.8333 9.64309C14.4425 10.5631 12.3191 11.0486 10 11.0486C7.68089 11.0486 5.55749 10.5631 4.16667 9.64309V3.57971H4.1667Z" fill="#94A3B8"/>
<ellipse cx="10" cy="3.57335" rx="5.83333" ry="1.90668" fill="#475569"/>
</svg>
