<svg width="16" height="16" viewBox="0 0 16 16" fill="none" xmlns="http://www.w3.org/2000/svg">
<path d="M7.33341 12.0003C7.33341 12.7337 6.73341 13.3337 6.00008 13.3337C5.26675 13.3337 4.66675 12.7337 4.66675 12.0003C4.66675 11.267 5.26675 10.667 6.00008 10.667C6.73341 10.667 7.33341 11.267 7.33341 12.0003ZM6.00008 6.66699C5.26675 6.66699 4.66675 7.26699 4.66675 8.00033C4.66675 8.73366 5.26675 9.33366 6.00008 9.33366C6.73341 9.33366 7.33341 8.73366 7.33341 8.00033C7.33341 7.26699 6.73341 6.66699 6.00008 6.66699ZM6.00008 2.66699C5.26675 2.66699 4.66675 3.26699 4.66675 4.00033C4.66675 4.73366 5.26675 5.33366 6.00008 5.33366C6.73341 5.33366 7.33341 4.73366 7.33341 4.00033C7.33341 3.26699 6.73341 2.66699 6.00008 2.66699ZM10.0001 5.33366C10.7334 5.33366 11.3334 4.73366 11.3334 4.00033C11.3334 3.26699 10.7334 2.66699 10.0001 2.66699C9.26675 2.66699 8.66675 3.26699 8.66675 4.00033C8.66675 4.73366 9.26675 5.33366 10.0001 5.33366ZM10.0001 6.66699C9.26675 6.66699 8.66675 7.26699 8.66675 8.00033C8.66675 8.73366 9.26675 9.33366 10.0001 9.33366C10.7334 9.33366 11.3334 8.73366 11.3334 8.00033C11.3334 7.26699 10.7334 6.66699 10.0001 6.66699ZM10.0001 10.667C9.26675 10.667 8.66675 11.267 8.66675 12.0003C8.66675 12.7337 9.26675 13.3337 10.0001 13.3337C10.7334 13.3337 11.3334 12.7337 11.3334 12.0003C11.3334 11.267 10.7334 10.667 10.0001 10.667Z" fill="#475569"/>
</svg>
