<svg t="1632896385583" viewBox="0 0 1024 1024" version="1.1" xmlns="http://www.w3.org/2000/svg" p-id="3066" width="48" height="48"><path d="M749.344 425.504l60.288 55.072h-266.08V216.8l55.232 57.856 44.512-44.8L509.472 96 375.36 229.824l44.8 44.8 60.32-57.824v263.776H219.424l54.912-55.04-44.48-44.512L96 514.848l133.824 133.824 44.48-44.48-54.88-60.48h261.024v263.648l-60.288-57.696-44.8 44.48 102.56 102.304v2.816h2.528l29.024 28.736 28.736-28.736h2.816v-2.816l102.272-102.272-44.48-44.48-55.264 57.664v-263.68h266.08l-60.288 60.48 44.8 44.48L928 514.88l-133.824-133.824z" fill="#ffffff" p-id="3067"></path></svg>