<svg width="44" height="12" viewBox="0 0 44 12" fill="none" xmlns="http://www.w3.org/2000/svg">
<path d="M1.95 6C1.95 5.145 2.645 4.45 3.5 4.45H5.5V3.5H3.5C2.12 3.5 1 4.62 1 6C1 7.38 2.12 8.5 3.5 8.5H5.5V7.55H3.5C2.645 7.55 1.95 6.855 1.95 6ZM4 6.5H8V5.5H4V6.5ZM8.5 3.5H6.5V4.45H8.5C9.355 4.45 10.05 5.145 10.05 6C10.05 6.855 9.355 7.55 8.5 7.55H6.5V8.5H8.5C9.88 8.5 11 7.38 11 6C11 4.62 9.88 3.5 8.5 3.5Z" fill="#94A3B8"/>
<path d="M18.3271 5.83769V8.4044H21.4963V5.83769H18.3271ZM20.9516 7.88446H18.8553V6.36589H20.9516V7.88446ZM14.7701 3.16369V3.69188H16.0245V4.91334H14.671V5.45805H16.1979V8.24759C15.9172 8.00825 15.6697 7.68638 15.4551 7.28198C15.5046 6.88583 15.5376 6.47318 15.5541 6.04402L15.0424 5.98625C15.0094 7.17469 14.8031 8.25585 14.4399 9.2132L14.8691 9.6011C15.0672 9.11417 15.2157 8.59422 15.3313 8.03301C15.6779 8.55296 16.0823 8.91609 16.528 9.12242C17.0397 9.35351 18.3271 9.4773 20.3822 9.4773H21.8512L21.9503 8.88308C21.5789 8.89959 21.0094 8.90784 20.2501 8.91609C18.5005 8.91609 17.378 8.82531 16.8911 8.66025C16.8498 8.64374 16.8086 8.62724 16.7591 8.60248V7.16644H17.8237V6.62173H16.7591V5.45805H17.8155V4.91334H16.594V3.69188H17.832V3.16369H16.594V2.04127H16.0245V3.16369H14.7701ZM19.2515 2.99862C19.169 3.4608 19.0369 3.83219 18.8636 4.12104C18.6655 4.43466 18.3684 4.72352 17.9723 4.98762L18.3602 5.47455C18.8058 5.16093 19.1442 4.7978 19.3753 4.3934C19.5569 4.04677 19.6972 3.58459 19.8045 2.99862H21.0424C21.0342 3.84869 20.9929 4.36864 20.9269 4.56671C20.8608 4.77304 20.704 4.88033 20.4482 4.88858L19.8457 4.84732L19.9943 5.36726C20.2254 5.38377 20.4152 5.40027 20.5802 5.40027C20.9599 5.40027 21.224 5.25997 21.3725 4.97937C21.5294 4.69876 21.6119 3.85695 21.6119 2.45392H18.1126V2.99862H19.2515Z" fill="#375FF3"/>
<path d="M26.9104 6.70426V7.23246H28.4537V8.60248H29.0067V7.23246H30.2034V6.70426H29.0067V5.68913H29.9723V5.16919H29.0067V4.05502H28.4537V5.16919H27.6036C27.8595 4.69051 28.0906 4.1293 28.3051 3.50206H30.0465V2.98212H28.4702C28.5445 2.72627 28.6188 2.45392 28.6848 2.17331L28.1566 2.04952C28.0741 2.37139 27.9915 2.68501 27.909 2.98212H26.9269V3.50206H27.7522C27.5211 4.17882 27.2653 4.74003 26.9846 5.19395L27.1002 5.68913H28.4537V6.70426H26.9104ZM25.7549 2.22283L25.3175 2.49519C25.6807 2.98212 25.9695 3.42779 26.1841 3.84044L26.6298 3.52682C26.4317 3.15543 26.1346 2.71802 25.7549 2.22283ZM29.0232 8.9326C28.7095 8.9326 28.3959 8.92435 28.0823 8.91609C27.7604 8.89959 27.4798 8.84182 27.2487 8.75103C26.9929 8.62724 26.7783 8.46217 26.6133 8.24759C26.5885 8.21458 26.5555 8.18982 26.5225 8.15681V4.82256H25.3093V5.35076H25.9778V8.13205C25.7467 8.27235 25.4578 8.61073 25.1112 9.15543L25.4661 9.6011C25.8292 8.94911 26.0851 8.62724 26.2254 8.62724C26.2996 8.62724 26.3904 8.68501 26.4977 8.8088C26.6958 9.03989 26.9351 9.21321 27.224 9.31224C27.5128 9.40303 27.8512 9.45255 28.2309 9.4608C28.4785 9.46905 28.7343 9.4773 28.9819 9.4773H30.0961L30.2529 8.91609C29.865 8.92435 29.4523 8.9326 29.0232 8.9326ZM23.5431 2.07428C23.3615 3.0729 23.0562 3.989 22.6435 4.8143L23.1139 5.11142C23.3533 4.64924 23.5679 4.1293 23.7494 3.55983H25.169V2.99862H23.9227C23.9888 2.73453 24.0548 2.47043 24.1126 2.18982L23.5431 2.07428ZM23.3615 4.64099V5.17744H23.7824V6.20908H22.8664V6.76204H23.7824V8.6685C23.7824 8.78404 23.7164 8.87483 23.5926 8.9326L23.8155 9.42779C24.3272 9.24622 24.7728 9.00688 25.169 8.72627L25.0699 8.21458C24.8223 8.41265 24.583 8.56946 24.3519 8.68501V6.76204H25.2597V6.20908H24.3519V5.17744H25.0287V4.64099H23.3615Z" fill="#375FF3"/>
<path d="M34.9489 3.44429L34.462 3.67538C34.6353 3.97249 34.8003 4.30261 34.9654 4.66575H33.7027V5.23521H38.3079V4.66575H36.9709C37.1607 4.33563 37.334 3.96424 37.4908 3.55158L36.9296 3.35351C36.7646 3.81568 36.5747 4.25309 36.3437 4.66575H35.5349C35.3533 4.22008 35.1635 3.81568 34.9489 3.44429ZM36.0383 2L35.4193 2.09904C35.5183 2.30536 35.6174 2.53645 35.7082 2.78404H33.8925V3.32875H38.1593V2.78404H36.3106C36.2199 2.49519 36.1291 2.23109 36.0383 2ZM31.92 9.54333C32.4069 9.54333 32.6545 9.30399 32.6545 8.82531V6.38239C32.8856 6.2751 33.1167 6.15956 33.3478 6.03576V5.43329C33.1167 5.55708 32.8856 5.67263 32.6545 5.78817V4.20358H33.3395V3.63411H32.6545V2.07428H32.0438V3.63411H31.0369V4.20358H32.0438V6.04402C31.6642 6.19257 31.2763 6.31637 30.8884 6.41541L31.0369 7.00963C31.3753 6.90234 31.7137 6.77854 32.0438 6.64649V8.67675C32.0438 8.89133 31.9282 8.99862 31.7137 8.99862C31.5156 8.99862 31.301 8.98212 31.0782 8.96561L31.202 9.54333H31.92ZM35.312 5.4663C35.2212 5.69739 35.1222 5.92847 35.0067 6.17607H33.5954V6.75378H34.7013C34.528 7.0674 34.3299 7.38927 34.1071 7.72765C34.6848 7.95873 35.2212 8.18157 35.7247 8.41265C35.213 8.70977 34.4702 8.94085 33.5128 9.11417L33.7439 9.65062C34.9324 9.41953 35.799 9.09766 36.3437 8.70151C37.0039 9.01513 37.5734 9.3205 38.0686 9.62586L38.3904 9.14718C37.8705 8.85007 37.3258 8.56946 36.7646 8.30536C37.1525 7.88446 37.4083 7.36451 37.5321 6.75378H38.4399V6.17607H35.6091C35.7082 5.96974 35.799 5.75516 35.8815 5.53232L35.312 5.4663ZM36.9709 6.75378C36.8388 7.28198 36.5912 7.71114 36.2199 8.05777C35.7742 7.8597 35.312 7.66988 34.8333 7.48831C34.9984 7.25722 35.1552 7.00963 35.3038 6.75378H36.9709Z" fill="#375FF3"/>
</svg>
