<svg width="48" height="24" viewBox="0 0 48 24" fill="none" xmlns="http://www.w3.org/2000/svg">
<rect x="8.5" y="0.5" width="31" height="23" rx="1.5" fill="white" stroke="#E2E8F0"/>
<circle cx="15" cy="7" r="3" fill="#638AFF"/>
<path fill-rule="evenodd" clip-rule="evenodd" d="M35.8 19.9984C35.9503 19.9984 36.0469 19.8387 35.9771 19.7055L29.8956 8.10712C29.8207 7.96429 29.6162 7.96429 29.5413 8.10712L25.0163 16.7371C24.9487 16.866 24.7705 16.8819 24.6812 16.7669L21.6494 12.864C21.5694 12.7609 21.4136 12.7609 21.3335 12.864L16.0424 19.6754C15.9404 19.8068 16.034 19.9981 16.2004 19.9981H23.3063C23.3063 19.9981 23.3064 19.9982 23.3063 19.9983V19.9983C23.3063 19.9983 23.3064 19.9984 23.3064 19.9984H35.8Z" fill="#CBD5E1"/>
</svg>
