<svg width="24" height="24" viewBox="0 0 24 24" fill="none" xmlns="http://www.w3.org/2000/svg">
<path fill-rule="evenodd" clip-rule="evenodd" d="M14.5 8.5H19V20C19 21.1046 18.1046 22 17 22H7C5.89543 22 5 21.1046 5 20V4C5 2.89543 5.89543 2 7 2H12.5V6.5C12.5 7.60457 13.3954 8.5 14.5 8.5ZM7 13C7 12.4477 7.44772 12 8 12H16C16.5523 12 17 12.4477 17 13C17 13.5523 16.5523 14 16 14H8C7.44772 14 7 13.5523 7 13ZM8 16C7.44772 16 7 16.4477 7 17C7 17.5523 7.44772 18 8 18H13C13.5523 18 14 17.5523 14 17C14 16.4477 13.5523 16 13 16H8Z" fill="#94A3B8"/>
<path fill-rule="evenodd" clip-rule="evenodd" d="M12.5 2L19 8.5H14.5C13.3954 8.5 12.5 7.60457 12.5 6.5V2Z" fill="#94A3B8"/>
</svg>
