<svg width="152" height="106" viewBox="0 0 152 106" fill="none" xmlns="http://www.w3.org/2000/svg">
<path d="M45.9859 30.0004C45.9859 33.3668 43.3015 36.0875 40.0002 36.0875C36.6989 36.0875 34.0145 33.3668 34.0145 30.0004C34.0145 26.634 36.6989 23.9133 40.0002 23.9133C43.3015 23.9133 45.9859 26.634 45.9859 30.0004Z" fill="white" stroke="#94A3B8" stroke-width="0.6"/>
<g filter="url(#filter0_b_7108_15330)">
<ellipse cx="40" cy="62.8549" rx="12" ry="12.2602" fill="white" fill-opacity="0.1"/>
</g>
<path d="M63.4289 37.7507L71.5881 65.3381" stroke="#94A3B8" stroke-width="0.6" stroke-linecap="round"/>
<path d="M70.2775 78.0499C67.0423 76.1197 65.9266 71.8547 67.8385 68.5098C69.7504 65.1649 73.9344 64.0619 77.1696 65.9922C80.4048 67.9224 81.5205 72.1874 79.6086 75.5323C77.6967 78.8772 73.5127 79.9802 70.2775 78.0499Z" stroke="url(#paint0_linear_7108_15330)" stroke-width="3.53227"/>
<path d="M62.2858 37.7517L40.7593 56.1287" stroke="#94A3B8" stroke-width="0.6" stroke-linecap="round"/>
<g filter="url(#filter1_d_7108_15330)">
<ellipse rx="4.67054" ry="4.57143" transform="matrix(0 -1 -1 0 38.2856 58.7689)" fill="#638AFF"/>
</g>
<path d="M62.2859 37.7508L40.5715 29.419" stroke="#94A3B8" stroke-width="0.6" stroke-linecap="round"/>
<ellipse rx="2.86446" ry="2.89793" transform="matrix(-0.937293 0.348543 0.335588 0.942009 40.002 29.6638)" fill="#FCD34D"/>
<path d="M62.2855 38.9178L81.838 20.4395" stroke="#94A3B8" stroke-width="0.6" stroke-linecap="round"/>
<path d="M123.316 37.5004C123.613 38.234 123.82 39.0148 123.924 39.8286L123.329 39.9044C123.376 40.2734 123.4 40.6499 123.4 41.0325C123.4 41.4151 123.376 41.7917 123.329 42.1607L123.924 42.2365C123.82 43.0503 123.613 43.8311 123.316 44.5647L122.76 44.3395C122.475 45.0442 122.101 45.7024 121.653 46.2999L122.133 46.6599C121.648 47.3054 121.083 47.8846 120.451 48.3815L120.08 47.9101C119.491 48.3735 118.842 48.7601 118.146 49.0555L118.381 49.6078C117.651 49.918 116.873 50.1346 116.061 50.2431L115.981 49.6484C115.614 49.6975 115.239 49.7229 114.857 49.7229C114.476 49.7229 114.101 49.6975 113.733 49.6484L113.654 50.2431C112.842 50.1346 112.064 49.918 111.333 49.6078L111.568 49.0555C110.872 48.7601 110.223 48.3735 109.634 47.9101L109.263 48.3815C108.632 47.8846 108.066 47.3054 107.582 46.6599L108.062 46.2999C107.614 45.7024 107.24 45.0442 106.954 44.3395L106.398 44.5647C106.101 43.8311 105.894 43.0503 105.79 42.2365L106.386 42.1607C106.339 41.7917 106.314 41.4151 106.314 41.0325C106.314 40.6499 106.339 40.2734 106.386 39.9044L105.79 39.8286C105.894 39.0148 106.101 38.234 106.398 37.5004L106.954 37.7256C107.24 37.0209 107.614 36.3627 108.062 35.7652L107.582 35.4051C108.066 34.7596 108.632 34.1805 109.263 33.6835L109.634 34.155C110.223 33.6916 110.872 33.305 111.568 33.0095L111.333 32.4573C112.064 32.1471 112.842 31.9304 113.654 31.822L113.733 32.4167C114.101 32.3676 114.476 32.3422 114.857 32.3422C115.239 32.3422 115.614 32.3676 115.981 32.4167L116.061 31.822C116.873 31.9304 117.651 32.1471 118.381 32.4573L118.146 33.0095C118.842 33.305 119.491 33.6916 120.08 34.155L120.451 33.6835C121.083 34.1805 121.648 34.7596 122.133 35.4051L121.653 35.7652C122.101 36.3627 122.475 37.0209 122.76 37.7256L123.316 37.5004Z" fill="white" stroke="#64748B" stroke-width="1.2" stroke-dasharray="2.35 2.35"/>
<path d="M62.2859 37.7513L114.857 41.0325" stroke="#64748B" stroke-width="0.6" stroke-linecap="round"/>
<g filter="url(#filter2_d_7108_15330)">
<ellipse cx="114.857" cy="41.0327" rx="3.42858" ry="3.48388" fill="url(#paint1_linear_7108_15330)"/>
</g>
<ellipse rx="5.83818" ry="5.71429" transform="matrix(0 -1 -1 0 84.0001 17.8376)" fill="url(#paint2_linear_7108_15330)"/>
<g filter="url(#filter3_d_7108_15330)">
<ellipse cx="62.2857" cy="37.5488" rx="13.7143" ry="13.9355" fill="url(#paint3_linear_7108_15330)"/>
</g>
<g filter="url(#filter4_b_7108_15330)">
<ellipse cx="62.2857" cy="37.6249" rx="13.7143" ry="14.0116" fill="white" fill-opacity="0.1"/>
</g>
<defs>
<filter id="filter0_b_7108_15330" x="-5.57838" y="17.0163" width="91.1568" height="91.6773" filterUnits="userSpaceOnUse" color-interpolation-filters="sRGB">
<feFlood flood-opacity="0" result="BackgroundImageFix"/>
<feGaussianBlur in="BackgroundImage" stdDeviation="16.7892"/>
<feComposite in2="SourceAlpha" operator="in" result="effect1_backgroundBlur_7108_15330"/>
<feBlend mode="normal" in="SourceGraphic" in2="effect1_backgroundBlur_7108_15330" result="shape"/>
</filter>
<filter id="filter1_d_7108_15330" x="0.746369" y="30.5502" width="75.0786" height="75.2765" filterUnits="userSpaceOnUse" color-interpolation-filters="sRGB">
<feFlood flood-opacity="0" result="BackgroundImageFix"/>
<feColorMatrix in="SourceAlpha" type="matrix" values="0 0 0 0 0 0 0 0 0 0 0 0 0 0 0 0 0 0 127 0" result="hardAlpha"/>
<feMorphology radius="4.70969" operator="dilate" in="SourceAlpha" result="effect1_dropShadow_7108_15330"/>
<feOffset dy="9.41939"/>
<feGaussianBlur stdDeviation="14.1291"/>
<feColorMatrix type="matrix" values="0 0 0 0 0.215686 0 0 0 0 0.372549 0 0 0 0 0.952941 0 0 0 0.25 0"/>
<feBlend mode="normal" in2="BackgroundImageFix" result="effect1_dropShadow_7108_15330"/>
<feBlend mode="normal" in="SourceGraphic" in2="effect1_dropShadow_7108_15330" result="shape"/>
</filter>
<filter id="filter2_d_7108_15330" x="78.4607" y="14.0004" width="72.7929" height="72.9035" filterUnits="userSpaceOnUse" color-interpolation-filters="sRGB">
<feFlood flood-opacity="0" result="BackgroundImageFix"/>
<feColorMatrix in="SourceAlpha" type="matrix" values="0 0 0 0 0 0 0 0 0 0 0 0 0 0 0 0 0 0 127 0" result="hardAlpha"/>
<feMorphology radius="4.70969" operator="dilate" in="SourceAlpha" result="effect1_dropShadow_7108_15330"/>
<feOffset dy="9.41939"/>
<feGaussianBlur stdDeviation="14.1291"/>
<feColorMatrix type="matrix" values="0 0 0 0 0.215686 0 0 0 0 0.372549 0 0 0 0 0.952941 0 0 0 0.25 0"/>
<feBlend mode="normal" in2="BackgroundImageFix" result="effect1_dropShadow_7108_15330"/>
<feBlend mode="normal" in="SourceGraphic" in2="effect1_dropShadow_7108_15330" result="shape"/>
</filter>
<filter id="filter3_d_7108_15330" x="15.6035" y="0.0648069" width="93.3643" height="93.8068" filterUnits="userSpaceOnUse" color-interpolation-filters="sRGB">
<feFlood flood-opacity="0" result="BackgroundImageFix"/>
<feColorMatrix in="SourceAlpha" type="matrix" values="0 0 0 0 0 0 0 0 0 0 0 0 0 0 0 0 0 0 127 0" result="hardAlpha"/>
<feMorphology radius="4.70969" operator="dilate" in="SourceAlpha" result="effect1_dropShadow_7108_15330"/>
<feOffset dy="9.41939"/>
<feGaussianBlur stdDeviation="14.1291"/>
<feColorMatrix type="matrix" values="0 0 0 0 0.215686 0 0 0 0 0.372549 0 0 0 0 0.952941 0 0 0 0.25 0"/>
<feBlend mode="normal" in2="BackgroundImageFix" result="effect1_dropShadow_7108_15330"/>
<feBlend mode="normal" in="SourceGraphic" in2="effect1_dropShadow_7108_15330" result="shape"/>
</filter>
<filter id="filter4_b_7108_15330" x="22.6681" y="-2.29004" width="79.2352" height="79.8301" filterUnits="userSpaceOnUse" color-interpolation-filters="sRGB">
<feFlood flood-opacity="0" result="BackgroundImageFix"/>
<feGaussianBlur in="BackgroundImage" stdDeviation="12.9517"/>
<feComposite in2="SourceAlpha" operator="in" result="effect1_backgroundBlur_7108_15330"/>
<feBlend mode="normal" in="SourceGraphic" in2="effect1_backgroundBlur_7108_15330" result="shape"/>
</filter>
<linearGradient id="paint0_linear_7108_15330" x1="81.1253" y1="76.4372" x2="66.162" y2="67.8844" gradientUnits="userSpaceOnUse">
<stop stop-color="#FCD34D"/>
<stop offset="1" stop-color="#FBBF24"/>
</linearGradient>
<linearGradient id="paint1_linear_7108_15330" x1="111.429" y1="41.0327" x2="118.286" y2="41.0327" gradientUnits="userSpaceOnUse">
<stop stop-color="#638AFF"/>
<stop offset="1" stop-color="#375FF3"/>
</linearGradient>
<linearGradient id="paint2_linear_7108_15330" x1="5.83818" y1="0" x2="5.83818" y2="11.4286" gradientUnits="userSpaceOnUse">
<stop stop-color="#FCD34D"/>
<stop offset="1" stop-color="#FBBF24"/>
</linearGradient>
<linearGradient id="paint3_linear_7108_15330" x1="48.5714" y1="37.5486" x2="76" y2="37.5486" gradientUnits="userSpaceOnUse">
<stop stop-color="#638AFF"/>
<stop offset="1" stop-color="#375FF3"/>
</linearGradient>
</defs>
</svg>
