<svg width="16" height="16" viewBox="0 0 16 16" fill="none" xmlns="http://www.w3.org/2000/svg">
<path d="M9.33329 7.99984L7.99996 9.33317L6.66663 7.99984L7.99996 6.6665L9.33329 7.99984ZM7.99996 3.99984L9.41329 5.41317L11.08 3.7465L7.99996 0.666504L4.91996 3.7465L6.58663 5.41317L7.99996 3.99984ZM3.99996 7.99984L5.41329 6.5865L3.74663 4.91984L0.666626 7.99984L3.74663 11.0798L5.41329 9.41317L3.99996 7.99984ZM12 7.99984L10.5866 9.41317L12.2533 11.0798L15.3333 7.99984L12.2533 4.91984L10.5866 6.5865L12 7.99984ZM7.99996 11.9998L6.58663 10.5865L4.91996 12.2532L7.99996 15.3332L11.08 12.2532L9.41329 10.5865L7.99996 11.9998Z" fill="#475569"/>
</svg>
