<svg width="24" height="24" viewBox="0 0 24 24" fill="none" xmlns="http://www.w3.org/2000/svg">
<g clip-path="url(#clip0)">
<path d="M7 5H14V7H7V5Z" fill="#475569"/>
<path d="M7 9H11V11H7V9Z" fill="#475569"/>
<path fill-rule="evenodd" clip-rule="evenodd" d="M17.8134 12L17.5629 13.2617C17.1453 13.4169 16.7591 13.6337 16.42 13.9072L15.1866 13.4893L14 15.5107L14.9869 16.3535C14.9519 16.5645 14.9292 16.7793 14.9292 17C14.9292 17.2207 14.9519 17.4355 14.9869 17.6465L14 18.4893L15.1866 20.5107L16.42 20.0928C16.7591 20.3663 17.1453 20.5831 17.5629 20.7383L17.8134 22H20.1866L20.4371 20.7383C20.8547 20.5831 21.2409 20.3663 21.58 20.0928L22.8134 20.5107L24 18.4893L23.0131 17.6465C23.0481 17.4355 23.0708 17.2207 23.0708 17C23.0708 16.7793 23.0481 16.5645 23.0131 16.3535L24 15.5107L22.8134 13.4893L21.58 13.9072C21.2409 13.6337 20.8547 13.4169 20.4371 13.2617L20.1866 12H17.8134ZM20.6667 16.9999C20.6667 17.9204 19.9205 18.6666 19 18.6666C18.0795 18.6666 17.3333 17.9204 17.3333 16.9999C17.3333 16.0794 18.0795 15.3333 19 15.3333C19.9205 15.3333 20.6667 16.0794 20.6667 16.9999Z" fill="#475569"/>
<path fill-rule="evenodd" clip-rule="evenodd" d="M4 3C4 2.44772 4.44772 2 5 2H19C19.5523 2 20 2.44772 20 3V10.5764C19.674 10.5261 19.3401 10.5 19 10.5C15.4101 10.5 12.5 13.4101 12.5 17C12.5 19.0104 13.4127 20.8077 14.8464 22H5C4.44772 22 4 21.5523 4 21V3ZM7 5H14V7H7V5ZM7 9H11V11H7V9Z" fill="#94A3B8"/>
</g>
<defs>
<clipPath id="clip0">
<rect width="24" height="24" fill="white"/>
</clipPath>
</defs>
</svg>
