<svg width="24" height="24" viewBox="0 0 24 24" fill="none" xmlns="http://www.w3.org/2000/svg">
<path opacity="0.65" fill-rule="evenodd" clip-rule="evenodd" d="M12 22C9.21707 22 6.66898 21.4174 5 20.3134V13.3713C6.66898 14.4753 9.21707 15.058 12 15.058C14.7829 15.058 17.331 14.4753 19 13.3713V20.3134C17.331 21.4174 14.7829 22 12 22Z" fill="white"/>
<path opacity="0.65" fill-rule="evenodd" clip-rule="evenodd" d="M5.00004 4.29565C5.01254 5.55581 8.14174 6.57609 12 6.57609C15.8583 6.57609 18.9875 5.55581 19 4.29565L19 11.5717C17.331 12.6757 14.7829 13.2583 12 13.2583C9.21707 13.2583 6.66898 12.6757 5 11.5717V4.29565H5.00004Z" fill="white"/>
<ellipse cx="12" cy="4.28802" rx="7" ry="2.28802" fill="white"/>
</svg>
