<svg width="48" height="24" viewBox="0 0 48 24" fill="none" xmlns="http://www.w3.org/2000/svg">
<rect x="2" y="4" width="44" height="16" rx="2" fill="#638AFF"/>
<path d="M23.7137 8.91927H21.9505C21.845 8.57266 21.7395 8.27126 21.6265 8L21.0764 8.09042C21.197 8.34661 21.31 8.61787 21.408 8.91927H19.6749V10.4338H20.1873V9.40904H23.1938V10.4037H23.7137V8.91927ZM21.0764 9.88375C20.9709 10.3057 20.8579 10.7051 20.7298 11.0969H19.4941V11.6168H20.549C20.3832 12.0388 20.2024 12.4381 19.9989 12.8149C20.4962 13.0786 20.9634 13.3348 21.4004 13.5834C20.8881 13.9602 20.1421 14.2616 19.1475 14.4876L19.366 15C20.5414 14.7212 21.3854 14.352 21.9128 13.8848C22.591 14.2842 23.1561 14.6459 23.6082 14.9774L23.9774 14.5479C23.5404 14.2465 22.9752 13.8924 22.267 13.5005C22.6663 13.0032 22.93 12.3703 23.0506 11.6168H23.9548V11.0969H21.2799C21.3854 10.7503 21.4984 10.3584 21.6039 9.92896L21.0764 9.88375ZM22.5307 11.6168C22.4026 12.2799 22.1539 12.8149 21.7847 13.2368C21.4306 13.0484 21.0463 12.8525 20.6394 12.6416C20.7976 12.3552 20.9483 12.0086 21.099 11.6168H22.5307ZM17.9419 14.902C18.3714 14.902 18.5899 14.6835 18.5899 14.2465V12.0689C18.8235 11.9634 19.0571 11.8579 19.2906 11.7449V11.1948C19.0571 11.3154 18.8235 11.4284 18.5899 11.5339V10.0269H19.2982V9.507H18.5899V8.08288H18.0323V9.507H17.1507V10.0269H18.0323V11.7524C17.7008 11.873 17.3541 11.9785 17 12.0614L17.1356 12.6039C17.4295 12.5135 17.7309 12.408 18.0323 12.2949V14.1109C18.0323 14.3068 17.9343 14.4047 17.7535 14.4047C17.5727 14.4047 17.3843 14.3897 17.1884 14.3746L17.3014 14.902H17.9419Z" fill="#F0F6FF"/>
<path d="M30.5479 8.9042L30.4349 11.1421H29.0484L29.2443 8.9042H30.5479ZM28.521 11.1421H27.564V11.6695H28.4758L28.2497 14.2164H27.338V14.7438H31.5124V14.2164H30.8342L31.1055 8.39182H27.76V8.9042H28.7169L28.521 11.1421ZM28.7696 14.2164L29.0032 11.6695H30.4123L30.2917 14.2164H28.7696ZM25.5899 8.07535C25.3789 8.97955 25.0398 9.80086 24.5727 10.5393L25.0172 10.8181C25.2809 10.4037 25.5145 9.93649 25.718 9.42411H27.2853V8.91927H25.8988C25.9742 8.67815 26.0495 8.43703 26.1173 8.18084L25.5899 8.07535ZM25.3638 10.4338V10.9236H25.8385V11.8504H24.8062V12.3477H25.8385V14.0581C25.8385 14.1636 25.7632 14.2465 25.6125 14.3068L25.8461 14.7739C26.4338 14.6006 26.9612 14.3821 27.4133 14.1109L27.3154 13.6286C26.9989 13.8321 26.6825 13.9978 26.3735 14.1259V12.3477H27.4133V11.8504H26.3735V10.9236H27.1572V10.4338H25.3638Z" fill="#F0F6FF"/>
</svg>
