<svg width="48" height="24" viewBox="0 0 48 24" fill="none" xmlns="http://www.w3.org/2000/svg">
<path d="M6.9279 12C6.9279 11.145 7.61494 10.45 8.46016 10.45H10.4373V9.5H8.46016C7.09595 9.5 5.98877 10.62 5.98877 12C5.98877 13.38 7.09595 14.5 8.46016 14.5H10.4373V13.55H8.46016C7.61494 13.55 6.9279 12.855 6.9279 12ZM8.95443 12.5H12.9087V11.5H8.95443V12.5ZM13.4029 9.5H11.4258V10.45H13.4029C14.2481 10.45 14.9352 11.145 14.9352 12C14.9352 12.855 14.2481 13.55 13.4029 13.55H11.4258V14.5H13.4029C14.7671 14.5 15.8743 13.38 15.8743 12C15.8743 10.62 14.7671 9.5 13.4029 9.5Z" fill="#94A3B8"/>
<path d="M23.1176 11.8377V14.4044H26.2505V11.8377H23.1176ZM25.7121 13.8845H23.6398V12.3659H25.7121V13.8845ZM19.6012 9.16369V9.69188H20.8414V10.9133H19.5033V11.458H21.0127V14.2476C20.7353 14.0083 20.4905 13.6864 20.2784 13.282C20.3274 12.8858 20.36 12.4732 20.3763 12.044L19.8705 11.9862C19.8378 13.1747 19.6339 14.2558 19.2749 15.2132L19.6992 15.6011C19.895 15.1142 20.0418 14.5942 20.156 14.033C20.4987 14.553 20.8985 14.9161 21.339 15.1224C21.8449 15.3535 23.1176 15.4773 25.1491 15.4773H26.6014L26.6993 14.8831C26.3321 14.8996 25.7692 14.9078 25.0186 14.9161C23.289 14.9161 22.1794 14.8253 21.698 14.6602C21.6572 14.6437 21.6164 14.6272 21.5675 14.6025V13.1664H22.6199V12.6217H21.5675V11.458H22.6118V10.9133H21.4043V9.69188H22.6281V9.16369H21.4043V8.04127H20.8414V9.16369H19.6012ZM24.0314 8.99862C23.9498 9.4608 23.8193 9.83219 23.6479 10.121C23.4521 10.4347 23.1584 10.7235 22.7668 10.9876L23.1503 11.4746C23.5908 11.1609 23.9253 10.7978 24.1538 10.3934C24.3333 10.0468 24.472 9.58459 24.578 8.99862H25.8018C25.7937 9.84869 25.7529 10.3686 25.6876 10.5667C25.6223 10.773 25.4673 10.8803 25.2144 10.8886L24.6188 10.8473L24.7657 11.3673C24.9941 11.3838 25.1818 11.4003 25.3449 11.4003C25.7202 11.4003 25.9813 11.26 26.1282 10.9794C26.2832 10.6988 26.3648 9.85695 26.3648 8.45392H22.9055V8.99862H24.0314Z" fill="#375FF3"/>
<path d="M31.6026 12.7043V13.2325H33.1283V14.6025H33.6749V13.2325H34.8579V12.7043H33.6749V11.6891H34.6295V11.1692H33.6749V10.055H33.1283V11.1692H32.2879C32.5409 10.6905 32.7693 10.1293 32.9814 9.50206H34.7029V8.98212H33.1446C33.218 8.72627 33.2914 8.45392 33.3567 8.17331L32.8346 8.04952C32.753 8.37139 32.6714 8.68501 32.5898 8.98212H31.6189V9.50206H32.4348C32.2063 10.1788 31.9534 10.74 31.676 11.1939L31.7903 11.6891H33.1283V12.7043H31.6026ZM30.4604 8.22283L30.028 8.49519C30.387 8.98212 30.6725 9.42779 30.8846 9.84044L31.3252 9.52682C31.1294 9.15543 30.8357 8.71802 30.4604 8.22283ZM33.6912 14.9326C33.3812 14.9326 33.0712 14.9243 32.7611 14.9161C32.4429 14.8996 32.1656 14.8418 31.9371 14.751C31.6842 14.6272 31.4721 14.4622 31.3089 14.2476C31.2844 14.2146 31.2518 14.1898 31.2192 14.1568V10.8226H30.0198V11.3508H30.6807V14.132C30.4522 14.2724 30.1667 14.6107 29.824 15.1554L30.1748 15.6011C30.5338 14.9491 30.7867 14.6272 30.9254 14.6272C30.9989 14.6272 31.0886 14.685 31.1947 14.8088C31.3905 15.0399 31.6271 15.2132 31.9126 15.3122C32.1982 15.403 32.5327 15.4525 32.908 15.4608C33.1527 15.4691 33.4057 15.4773 33.6504 15.4773H34.7518L34.9069 14.9161C34.5234 14.9243 34.1155 14.9326 33.6912 14.9326ZM28.2739 8.07428C28.0944 9.0729 27.7925 9.989 27.3846 10.8143L27.8496 11.1114C28.0862 10.6492 28.2984 10.1293 28.4778 9.55983H29.8811V8.99862H28.6492C28.7144 8.73453 28.7797 8.47043 28.8368 8.18982L28.2739 8.07428ZM28.0944 10.641V11.1774H28.5105V12.2091H27.6049V12.762H28.5105V14.6685C28.5105 14.784 28.4452 14.8748 28.3228 14.9326L28.5431 15.4278C29.049 15.2462 29.4895 15.0069 29.8811 14.7263L29.7832 14.2146C29.5385 14.4127 29.3019 14.5695 29.0734 14.685V12.762H29.9709V12.2091H29.0734V11.1774H29.7424V10.641H28.0944Z" fill="#375FF3"/>
<path d="M39.5491 9.44429L39.0678 9.67538C39.2391 9.97249 39.4023 10.3026 39.5654 10.6657H38.3172V11.2352H42.8697V10.6657H41.548C41.7356 10.3356 41.907 9.96424 42.062 9.55158L41.5072 9.35351C41.344 9.81568 41.1564 10.2531 40.9279 10.6657H40.1284C39.9489 10.2201 39.7612 9.81568 39.5491 9.44429ZM40.6261 8L40.0142 8.09904C40.1121 8.30536 40.21 8.53645 40.2997 8.78404H38.5048V9.32875H42.7228V8.78404H40.8953C40.8056 8.49519 40.7158 8.23109 40.6261 8ZM36.5549 15.5433C37.0363 15.5433 37.281 15.304 37.281 14.8253V12.3824C37.5095 12.2751 37.7379 12.1596 37.9663 12.0358V11.4333C37.7379 11.5571 37.5095 11.6726 37.281 11.7882V10.2036H37.9582V9.63411H37.281V8.07428H36.6773V9.63411H35.6819V10.2036H36.6773V12.044C36.302 12.1926 35.9185 12.3164 35.5351 12.4154L35.6819 13.0096C36.0164 12.9023 36.3509 12.7785 36.6773 12.6465V14.6768C36.6773 14.8913 36.5631 14.9986 36.3509 14.9986C36.1551 14.9986 35.943 14.9821 35.7227 14.9656L35.8451 15.5433H36.5549ZM39.9081 11.4663C39.8184 11.6974 39.7205 11.9285 39.6062 12.1761H38.2111V12.7538H39.3044C39.133 13.0674 38.9372 13.3893 38.7169 13.7276C39.288 13.9587 39.8184 14.1816 40.316 14.4127C39.8102 14.7098 39.0759 14.9409 38.1295 15.1142L38.358 15.6506C39.5328 15.4195 40.3895 15.0977 40.9279 14.7015C41.5806 15.0151 42.1436 15.3205 42.6331 15.6259L42.9513 15.1472C42.4373 14.8501 41.8988 14.5695 41.344 14.3054C41.7275 13.8845 41.9804 13.3645 42.1028 12.7538H43.0002V12.1761H40.2018C40.2997 11.9697 40.3895 11.7552 40.471 11.5323L39.9081 11.4663ZM41.548 12.7538C41.4174 13.282 41.1727 13.7111 40.8056 14.0578C40.365 13.8597 39.9081 13.6699 39.4349 13.4883C39.5981 13.2572 39.7531 13.0096 39.8999 12.7538H41.548Z" fill="#375FF3"/>
</svg>
