<svg width="16" height="16" viewBox="0 0 16 16" fill="none" xmlns="http://www.w3.org/2000/svg">
<path fill-rule="evenodd" clip-rule="evenodd" d="M11.334 1.33325H12.6673V3.33325H14.6673V4.66659H12.6673V6.65992C12.6673 6.65992 11.3407 6.66659 11.334 6.65992V4.66659H9.33398C9.33398 4.66659 9.34065 3.33992 9.33398 3.33325H11.334V1.33325ZM8.4 4.2H9V5.8H8.4H7.73726L7.26863 5.33137L6.53726 4.6H4C3.77908 4.6 3.6 4.77909 3.6 5V12.2C3.6 12.4209 3.77909 12.6 4 12.6H12.8C13.0209 12.6 13.2 12.4209 13.2 12.2V7.09998V6.59998H14.8V7.09998V12.2C14.8 13.3046 13.9046 14.2 12.8 14.2H4C2.89543 14.2 2 13.3046 2 12.2V5C2 3.89543 2.89543 3 4 3H7.2L8.4 4.2Z" fill="#475569"/>
</svg>
