<svg width="24" height="24" viewBox="0 0 24 24" fill="none" xmlns="http://www.w3.org/2000/svg">
<path d="M3 2C2.44772 2 2 2.44772 2 3V6C2 6.55228 2.44772 7 3 7H5.5V19.5C5.5 20.0523 5.94772 20.5 6.5 20.5H13V18.5H7.5V13H13V11H7.5V7H10C10.5523 7 11 6.55228 11 6V3C11 2.44772 10.5523 2 10 2H3Z" fill="#475569"/>
<path d="M14 9.5C13.4477 9.5 13 9.94771 13 10.5V13.5C13 14.0523 13.4477 14.5 14 14.5H21C21.5523 14.5 22 14.0523 22 13.5V10.5C22 9.94772 21.5523 9.5 21 9.5H14Z" fill="#94A3B8"/>
<path d="M14 17C13.4477 17 13 17.4477 13 18V21C13 21.5523 13.4477 22 14 22H21C21.5523 22 22 21.5523 22 21V18C22 17.4477 21.5523 17 21 17H14Z" fill="#94A3B8"/>
</svg>
