<svg width="20" height="20" viewBox="0 0 20 20" fill="none" xmlns="http://www.w3.org/2000/svg">
<rect width="20" height="20" fill="currentColor"/>
<path fill-rule="evenodd" clip-rule="evenodd" d="M10.8333 2.5H9.16667V4.15335C8.68974 4.22071 8.23113 4.34505 7.79795 4.51926L6.97169 3.08814L5.52831 3.92148L6.35523 5.35375C5.98276 5.64634 5.64634 5.98276 5.35375 6.35523L3.92148 5.52831L3.08814 6.97169L4.51926 7.79795C4.34505 8.23113 4.22071 8.68974 4.15335 9.16667H2.5V10.8333H4.15335C4.22071 11.3103 4.34505 11.7689 4.51926 12.2021L3.08814 13.0283L3.92148 14.4717L5.35375 13.6448C5.64634 14.0172 5.98276 14.3537 6.35523 14.6463L5.52831 16.0785L6.97169 16.9119L7.79795 15.4807C8.23114 15.6549 8.68974 15.7793 9.16667 15.8467V17.5H10.8333V15.8467C11.3103 15.7793 11.7689 15.6549 12.2021 15.4807L13.0283 16.9119L14.4717 16.0785L13.6448 14.6463C14.0172 14.3537 14.3537 14.0172 14.6463 13.6448L16.0785 14.4717L16.9119 13.0283L15.4807 12.2021C15.6549 11.7689 15.7793 11.3103 15.8467 10.8333H17.5V9.16667H15.8467C15.7793 8.68974 15.6549 8.23114 15.4807 7.79795L16.9119 6.97169L16.0785 5.52831L14.6463 6.35523C14.3537 5.98276 14.0172 5.64634 13.6448 5.35375L14.4717 3.92148L13.0283 3.08814L12.2021 4.51926C11.7689 4.34505 11.3103 4.22071 10.8333 4.15335V2.5ZM10 14.1667C12.3012 14.1667 14.1667 12.3012 14.1667 10C14.1667 7.69881 12.3012 5.83333 10 5.83333C7.69881 5.83333 5.83333 7.69881 5.83333 10C5.83333 12.3012 7.69881 14.1667 10 14.1667Z" fill="#475569"/>
<circle cx="10" cy="10" r="2.5" fill="#475569"/>
</svg>
