<svg width="20" height="20" viewBox="0 0 20 20" fill="none" xmlns="http://www.w3.org/2000/svg">
<path d="M9.99992 5.00008C13.1583 5.00008 15.9749 6.77508 17.3499 9.58342C16.8582 10.6001 16.1666 11.4751 15.3416 12.1834L16.5166 13.3584C17.6749 12.3334 18.5916 11.0501 19.1666 9.58342C17.7249 5.92508 14.1666 3.33341 9.99992 3.33341C8.94158 3.33341 7.92492 3.50008 6.96658 3.80842L8.34158 5.18341C8.88325 5.07508 9.43325 5.00008 9.99992 5.00008ZM9.10825 5.95008L10.8333 7.67508C11.3083 7.88342 11.6916 8.26675 11.8999 8.74175L13.6249 10.4667C13.6916 10.1834 13.7416 9.88342 13.7416 9.57508C13.7499 7.50842 12.0666 5.83342 9.99992 5.83342C9.69158 5.83342 9.39992 5.87508 9.10825 5.95008ZM1.67492 3.22508L3.90825 5.45842C2.54992 6.52508 1.47492 7.94175 0.833252 9.58342C2.27492 13.2417 5.83325 15.8334 9.99992 15.8334C11.2666 15.8334 12.4833 15.5918 13.5999 15.1501L16.4499 18.0001L17.6249 16.8251L2.84992 2.04175L1.67492 3.22508ZM7.92492 9.47508L10.0999 11.6501C10.0666 11.6584 10.0333 11.6667 9.99992 11.6667C8.84992 11.6667 7.91658 10.7334 7.91658 9.58342C7.91658 9.54175 7.92492 9.51675 7.92492 9.47508ZM5.09159 6.64175L6.54992 8.10008C6.35825 8.55842 6.24992 9.05842 6.24992 9.58342C6.24992 11.6501 7.93325 13.3334 9.99992 13.3334C10.5249 13.3334 11.0249 13.2251 11.4749 13.0334L12.2916 13.8501C11.5583 14.0501 10.7916 14.1667 9.99992 14.1667C6.84158 14.1667 4.02492 12.3917 2.64992 9.58342C3.23325 8.39175 4.08325 7.40841 5.09159 6.64175Z" fill="#475569"/>
</svg>
