<svg width="24" height="24" viewBox="0 0 24 24" fill="none" xmlns="http://www.w3.org/2000/svg">
<g clip-path="url(#clip0_7453_15124)">
<path d="M24 0H0V24H24V0Z" fill="white" fill-opacity="0.01"/>
<path fill-rule="evenodd" clip-rule="evenodd" d="M5 4C5 3.44772 5.44772 3 6 3H18C18.5523 3 19 3.44772 19 4V8C19 8.55228 18.5523 9 18 9H6C5.44772 9 5 8.55228 5 8V4Z" fill="#475569"/>
<path fill-rule="evenodd" clip-rule="evenodd" d="M5 16C5 15.4477 5.44772 15 6 15H18C18.5523 15 19 15.4477 19 16V20C19 20.5523 18.5523 21 18 21H6C5.44772 21 5 20.5523 5 20V16Z" fill="#94A3B8"/>
<path fill-rule="evenodd" clip-rule="evenodd" d="M22 23C22 23.5523 21.5523 24 21 24L3 24C2.44772 24 2 23.5523 2 23C2 22.4477 2.44772 22 3 22L21 22C21.5523 22 22 22.4477 22 23Z" fill="#475569"/>
<path fill-rule="evenodd" clip-rule="evenodd" d="M22 1C22 1.55228 21.5523 2 21 2L3 2C2.44772 2 2 1.55228 2 1C2 0.447715 2.44772 0 3 0L21 0C21.5523 0 22 0.447715 22 1Z" fill="#475569"/>
</g>
<defs>
<clipPath id="clip0_7453_15124">
<rect width="24" height="24" fill="white"/>
</clipPath>
</defs>
</svg>
