<svg width="24" height="24" viewBox="0 0 24 24" fill="none" xmlns="http://www.w3.org/2000/svg">
<path d="M24 0H0V24H24V0Z" fill="white" fill-opacity="0.01"/>
<path fill-rule="evenodd" clip-rule="evenodd" d="M5 3C5 2.44772 5.44772 2 6 2H18C18.5523 2 19 2.44772 19 3V8C19 8.55228 18.5523 9 18 9H6C5.44772 9 5 8.55228 5 8V3Z" fill="#475569"/>
<path fill-rule="evenodd" clip-rule="evenodd" d="M5 16C5 15.4477 5.44772 15 6 15H18C18.5523 15 19 15.4477 19 16V21C19 21.5523 18.5523 22 18 22H6C5.44772 22 5 21.5523 5 21V16Z" fill="#94A3B8"/>
<path fill-rule="evenodd" clip-rule="evenodd" d="M22 12C22 12.5523 21.5523 13 21 13L3 13C2.44772 13 2 12.5523 2 12C2 11.4477 2.44772 11 3 11L21 11C21.5523 11 22 11.4477 22 12Z" fill="#475569"/>
</svg>
