<svg width="24" height="24" viewBox="0 0 24 24" fill="none" xmlns="http://www.w3.org/2000/svg">
<path d="M24 0H0V24H24V0Z" fill="white" fill-opacity="0.01"/>
<path fill-rule="evenodd" clip-rule="evenodd" d="M1 14C1 13.4477 1.44772 13 2 13H19C19.5523 13 20 13.4477 20 14V19C20 19.5523 19.5523 20 19 20H2C1.44772 20 1 19.5523 1 19V14Z" fill="#475569"/>
<path fill-rule="evenodd" clip-rule="evenodd" d="M8 22C7.44772 22 7 21.5523 7 21L7 3C7 2.44772 7.44772 2 8 2C8.55228 2 9 2.44772 9 3L9 21C9 21.5523 8.55228 22 8 22Z" fill="#475569"/>
<path fill-rule="evenodd" clip-rule="evenodd" d="M3 5C3 4.44772 3.44772 4 4 4H19C19.5523 4 20 4.44772 20 5V10C20 10.5523 19.5523 11 19 11H4C3.44772 11 3 10.5523 3 10V5Z" fill="#94A3B8"/>
</svg>
