<svg width="24" height="24" viewBox="0 0 24 24" fill="none" xmlns="http://www.w3.org/2000/svg">
<path d="M24 0H0V24H24V0Z" fill="white" fill-opacity="0.01"/>
<path fill-rule="evenodd" clip-rule="evenodd" d="M4 1C4 0.447715 4.44772 0 5 0H19C19.5523 0 20 0.447715 20 1V6C20 6.55228 19.5523 7 19 7H5C4.44772 7 4 6.55228 4 6V1Z" fill="#94A3B8"/>
<path fill-rule="evenodd" clip-rule="evenodd" d="M4 10C4 9.44772 4.44772 9 5 9H19C19.5523 9 20 9.44772 20 10V15C20 15.5523 19.5523 16 19 16H5C4.44772 16 4 15.5523 4 15V10Z" fill="#475569"/>
<path d="M15.7 20.2398L14.76 19.2998L12.5335 21.4131L12.5335 16.7998L11.2002 16.7998L11.2002 21.4131L9.20011 19.2998L8.26011 20.2398L11.8668 23.9665L15.7 20.2398Z" fill="#475569"/>
</svg>
