<svg width="24" height="24" viewBox="0 0 24 24" fill="none" xmlns="http://www.w3.org/2000/svg">
<g clip-path="url(#clip0_7453_15116)">
<path d="M24 0H0V24H24V0Z" fill="white" fill-opacity="0.01"/>
<path fill-rule="evenodd" clip-rule="evenodd" d="M3 6C3 5.44772 3.44772 5 4 5H8C8.55228 5 9 5.44772 9 6V18C9 18.5523 8.55228 19 8 19H4C3.44772 19 3 18.5523 3 18V6Z" fill="#475569"/>
<path fill-rule="evenodd" clip-rule="evenodd" d="M15 6C15 5.44772 15.4477 5 16 5H20C20.5523 5 21 5.44772 21 6V18C21 18.5523 20.5523 19 20 19H16C15.4477 19 15 18.5523 15 18V6Z" fill="#94A3B8"/>
<path fill-rule="evenodd" clip-rule="evenodd" d="M23 22C22.4477 22 22 21.5523 22 21L22 3C22 2.44772 22.4477 2 23 2C23.5523 2 24 2.44772 24 3L24 21C24 21.5523 23.5523 22 23 22Z" fill="#475569"/>
<path fill-rule="evenodd" clip-rule="evenodd" d="M1 22C0.447715 22 0 21.5523 0 21L0 3C0 2.44772 0.447715 2 1 2C1.55228 2 2 2.44772 2 3L2 21C2 21.5523 1.55228 22 1 22Z" fill="#475569"/>
</g>
<defs>
<clipPath id="clip0_7453_15116">
<rect width="24" height="24" fill="white"/>
</clipPath>
</defs>
</svg>
