<svg width="24" height="24" viewBox="0 0 24 24" fill="none" xmlns="http://www.w3.org/2000/svg">
<path d="M24 0H0V24H24V0Z" fill="white" fill-opacity="0.01"/>
<path fill-rule="evenodd" clip-rule="evenodd" d="M5.5 23C4.94772 23 4.5 22.5523 4.5 22L4.5 2C4.5 1.44771 4.94772 1 5.5 1C6.05228 1 6.5 1.44771 6.5 2L6.5 22C6.5 22.5523 6.05228 23 5.5 23Z" fill="#475569"/>
<path fill-rule="evenodd" clip-rule="evenodd" d="M2 6C2 5.44772 2.44772 5 3 5H8C8.55228 5 9 5.44772 9 6V18C9 18.5523 8.55228 19 8 19H3C2.44772 19 2 18.5523 2 18V6Z" fill="#94A3B8"/>
<path fill-rule="evenodd" clip-rule="evenodd" d="M14 6C14 5.44772 14.4477 5 15 5H20C20.5523 5 21 5.44772 21 6V18C21 18.5523 20.5523 19 20 19H15C14.4477 19 14 18.5523 14 18V6Z" fill="#475569"/>
<path fill-rule="evenodd" clip-rule="evenodd" d="M17.5 23C16.9477 23 16.5 22.5523 16.5 22L16.5 2C16.5 1.44771 16.9477 1 17.5 1C18.0523 1 18.5 1.44771 18.5 2L18.5 22C18.5 22.5523 18.0523 23 17.5 23Z" fill="#475569"/>
</svg>
