<svg width="24" height="24" viewBox="0 0 24 24" fill="none" xmlns="http://www.w3.org/2000/svg">
<path d="M24 0H0V24H24V0Z" fill="white" fill-opacity="0.01"/>
<path fill-rule="evenodd" clip-rule="evenodd" d="M6 6C6 5.44772 6.44772 5 7 5H12C12.5523 5 13 5.44772 13 6V18C13 18.5523 12.5523 19 12 19H7C6.44772 19 6 18.5523 6 18V6Z" fill="#94A3B8"/>
<path fill-rule="evenodd" clip-rule="evenodd" d="M15 6C15 5.44772 15.4477 5 16 5H21C21.5523 5 22 5.44772 22 6V18C22 18.5523 21.5523 19 21 19H16C15.4477 19 15 18.5523 15 18V6Z" fill="#475569"/>
<path fill-rule="evenodd" clip-rule="evenodd" d="M3 22C2.44772 22 2 21.5523 2 21L2 3C2 2.44772 2.44772 2 3 2C3.55228 2 4 2.44772 4 3L4 21C4 21.5523 3.55228 22 3 22Z" fill="#475569"/>
</svg>
