<svg width="16" height="16" viewBox="0 0 16 16" fill="none" xmlns="http://www.w3.org/2000/svg">
<path fill-rule="evenodd" clip-rule="evenodd" d="M3.27417 13.5253H12.2874C12.7129 13.5253 12.9256 13.7443 12.9256 14.1813C12.9256 14.6193 12.7129 14.8383 12.2874 14.8383H3.27417C2.84871 14.8383 2.63599 14.6193 2.63599 14.1813C2.63599 13.7443 2.84871 13.5253 3.27417 13.5253Z" fill="white"/>
<path fill-rule="evenodd" clip-rule="evenodd" d="M12.1971 9.3965H9.28278V7.80229C10.4304 7.31006 11.275 5.98908 11.1888 4.49331C11.075 2.67508 9.5806 1.27775 7.81283 1.33501C6.04506 1.39328 4.64106 2.88603 4.64 4.70828C4.64 6.11465 5.36859 7.24075 6.55242 7.8043V9.39851H3.63805C3.20302 9.39851 2.78714 9.57632 2.47868 9.89375C2.16748 10.2215 1.99682 10.647 2.00004 11.0872V12.3981C2.00004 12.607 2.16385 12.7758 2.36594 12.7758H13.4693C13.5684 12.7752 13.6627 12.7351 13.7288 12.6653C13.7969 12.595 13.8352 12.4985 13.8352 12.3981V11.0851C13.8352 10.6381 13.6628 10.2082 13.3565 9.89175C13.0611 9.57983 12.6402 9.40002 12.1971 9.3965Z" fill="white"/>
</svg>
