<svg width="20" height="20" viewBox="0 0 20 20" fill="none" xmlns="http://www.w3.org/2000/svg">
<path fill-rule="evenodd" clip-rule="evenodd" d="M16.6667 5.00016H9.99999L8.33332 3.3335H3.33332C2.41666 3.3335 1.67499 4.0835 1.67499 5.00016L1.66666 15.0002C1.66666 15.9168 2.41666 16.6668 3.33332 16.6668H16.6667C17.5833 16.6668 18.3333 15.9168 18.3333 15.0002V6.66683C18.3333 5.75016 17.5833 5.00016 16.6667 5.00016Z" fill="#94A3B8"/>
<path fill-rule="evenodd" clip-rule="evenodd" d="M12.5 7.5C13.4167 7.5 14.1667 8.25 14.1667 9.16667C14.1667 10.0833 13.4167 10.8333 12.5 10.8333C11.5833 10.8333 10.8333 10.0833 10.8333 9.16667C10.8333 8.25 11.5833 7.5 12.5 7.5Z" fill="#475569"/>
<path fill-rule="evenodd" clip-rule="evenodd" d="M15.8333 14.1665H9.16666V13.3332C9.16666 12.2248 11.3917 11.6665 12.5 11.6665C13.6083 11.6665 15.8333 12.2248 15.8333 13.3332V14.1665Z" fill="#475569"/>
</svg>
