<svg width="24" height="24" viewBox="0 0 24 24" fill="none" xmlns="http://www.w3.org/2000/svg">
<path fill-rule="evenodd" clip-rule="evenodd" d="M6.25 22C8.59721 22 10.5 20.0972 10.5 17.75C10.5 17.4359 10.4659 17.1297 10.4013 16.835C10.896 16.6183 11.4355 16.5 12 16.5C12.5645 16.5 13.104 16.6183 13.5987 16.835C13.5341 17.1297 13.5 17.4359 13.5 17.75C13.5 20.0972 15.4028 22 17.75 22C20.0972 22 22 20.0972 22 17.75C22 15.4028 20.0972 13.5 17.75 13.5C16.434 13.5 15.2576 14.0982 14.4781 15.0375C13.7195 14.6924 12.8815 14.5 12 14.5C11.1185 14.5 10.2805 14.6924 9.52194 15.0375C8.74237 14.0982 7.56604 13.5 6.25 13.5C3.90279 13.5 2 15.4028 2 17.75C2 20.0972 3.90279 22 6.25 22ZM6.25 20C7.49264 20 8.5 18.9926 8.5 17.75C8.5 16.5074 7.49264 15.5 6.25 15.5C5.00736 15.5 4 16.5074 4 17.75C4 18.9926 5.00736 20 6.25 20ZM17.75 20C18.9926 20 20 18.9926 20 17.75C20 16.5074 18.9926 15.5 17.75 15.5C16.5074 15.5 15.5 16.5074 15.5 17.75C15.5 18.9926 16.5074 20 17.75 20Z" fill="#94A3B8"/>
<path d="M6.81623 2.43879C6.1687 2.22295 5.5 2.70492 5.5 3.38748V9.00005H3C2.44772 9.00005 2 9.44776 2 10V12H22V10C22 9.44776 21.5523 9.00005 21 9.00005H18.5V2.76265C18.5 2.1178 17.8987 1.64154 17.271 1.78924L10 3.50005L6.81623 2.43879Z" fill="#475569"/>
</svg>
