<svg width="16" height="16" viewBox="0 0 16 16" fill="none" xmlns="http://www.w3.org/2000/svg">
<path fill-rule="evenodd" clip-rule="evenodd" d="M6.00078 2.39999L7.20078 3.59999L11.6008 3.59999C12.7053 3.59999 13.6008 4.49542 13.6008 5.59999V7.19999H13.92C14.5706 7.19999 15.0479 7.81138 14.8901 8.44253L13.7901 12.8425C13.6789 13.2877 13.2789 13.6 12.82 13.6H11.6008L2.80078 13.6H2.3298C1.93731 13.6 1.61504 13.3808 1.44943 13.0744C1.05074 12.7088 0.800781 12.1836 0.800781 11.6L0.800781 4.39999C0.800781 3.29542 1.69621 2.39999 2.80078 2.39999H6.00078ZM12.0008 7.19999L4.2548 7.19999C3.8575 7.19999 3.49788 7.43519 3.33864 7.79917L2.40078 9.94285L2.40078 4.39999C2.40078 4.17908 2.57987 3.99999 2.80078 3.99999L5.33804 3.99999L6.06941 4.73136L6.53804 5.19999H7.20078L11.6008 5.19999C11.8217 5.19999 12.0008 5.37908 12.0008 5.59999V7.19999Z" fill="#475569"/>
</svg>
