<svg width="16" height="16" viewBox="0 0 16 16" fill="none" xmlns="http://www.w3.org/2000/svg">
<path d="M12 2.6665H10.6667V7.93317L12 6.59984V2.6665Z" fill="#475569"/>
<path d="M4.00002 2.6665H2.66669V13.3332H4.00002V2.6665Z" fill="#475569"/>
<path d="M8.00002 2.6665H6.66669V5.33317H8.00002V2.6665Z" fill="#475569"/>
<path d="M8.00002 6.6665H6.66669V9.33317H8.00002V6.6665Z" fill="#475569"/>
<path d="M8.00002 10.6665H6.66669V13.3332H8.00002V10.6665Z" fill="#475569"/>
<path d="M15.04 8.39321L14.2734 7.62654C13.88 7.23321 13.2467 7.23321 12.86 7.62654L9.33337 11.1532V13.3332H11.5134L15.04 9.80654C15.4334 9.41321 15.4334 8.77988 15.04 8.39321ZM11.0534 12.2999H10.3667V11.6132L12.6667 9.31321L13.3534 9.99988L11.0534 12.2999Z" fill="#475569"/>
</svg>
