<svg width="16" height="16" viewBox="0 0 16 16" fill="none" xmlns="http://www.w3.org/2000/svg">
<path d="M13.5 3H14.5V13H13.5V3Z" fill="#94A3B8"/>
<path d="M13.4428 8.28804C13.5191 8.35162 13.5191 8.46881 13.4428 8.5324L11.9417 9.78327C11.8381 9.86959 11.6809 9.79593 11.6809 9.66109V8.7283H8.5V8.09213H11.6809V7.15935C11.6809 7.0245 11.8381 6.95084 11.9417 7.03717L13.4428 8.28804Z" fill="#475569"/>
<path d="M2.55723 8.28804C2.48092 8.35162 2.48092 8.46881 2.55723 8.5324L4.05827 9.78327C4.16186 9.86959 4.31913 9.79593 4.31913 9.66109V8.7283H7.5V8.09213H4.31913V7.15935C4.31913 7.0245 4.16186 6.95084 4.05827 7.03717L2.55723 8.28804Z" fill="#475569"/>
<path d="M1.5 3H2.5V13H1.5V3Z" fill="#94A3B8"/>
</svg>
