<svg width="24" height="24" viewBox="0 0 24 24" fill="none" xmlns="http://www.w3.org/2000/svg">
<path fill-rule="evenodd" clip-rule="evenodd" d="M11.4614 5.5H12.5383V10.5853C12.37 10.5301 12.1888 10.5 12 10.5C11.8112 10.5 11.6299 10.5301 11.4614 10.5854V5.5ZM10.4765 11.5H5V12.5H10.4765C10.417 12.3436 10.3846 12.1753 10.3846 12C10.3846 11.8247 10.417 11.6564 10.4765 11.5ZM11.4614 13.4146V18.5H12.5383V13.4147C12.37 13.4699 12.1888 13.5 12 13.5C11.8112 13.5 11.6299 13.4699 11.4614 13.4146ZM13.5235 12.5H19V11.5H13.5235C13.583 11.6564 13.6154 11.8247 13.6154 12C13.6154 12.1753 13.583 12.3436 13.5235 12.5Z" />
</svg>
