<svg width="16" height="16" viewBox="0 0 16 16" fill="none" xmlns="http://www.w3.org/2000/svg">
<path d="M13 13.5L13 14.5L3 14.5L3 13.5L13 13.5Z" fill="#94A3B8"/>
<path d="M7.71196 13.4428C7.64838 13.5191 7.53119 13.5191 7.4676 13.4428L6.21673 11.9417C6.13041 11.8381 6.20407 11.6809 6.33891 11.6809L7.2717 11.6809L7.2717 8.5L7.90787 8.5L7.90787 11.6809L8.84065 11.6809C8.9755 11.6809 9.04916 11.8381 8.96283 11.9417L7.71196 13.4428Z" fill="#475569"/>
<path d="M7.71196 2.55723C7.64838 2.48092 7.53119 2.48092 7.4676 2.55723L6.21673 4.05827C6.13041 4.16186 6.20407 4.31913 6.33891 4.31913L7.2717 4.31913L7.2717 7.5L7.90787 7.5L7.90787 4.31913L8.84065 4.31913C8.9755 4.31913 9.04916 4.16186 8.96283 4.05827L7.71196 2.55723Z" fill="#475569"/>
<path d="M13 1.5L13 2.5L3 2.5L3 1.5L13 1.5Z" fill="#94A3B8"/>
</svg>
