<svg width="20" height="20" viewBox="0 0 20 20" fill="none" xmlns="http://www.w3.org/2000/svg">
<path fill-rule="evenodd" clip-rule="evenodd" d="M13.3335 8.33341C14.254 8.33341 15.0002 7.58722 15.0002 6.66675C15.0002 5.74627 14.254 5.00008 13.3335 5.00008C12.413 5.00008 11.6668 5.74627 11.6668 6.66675C11.6668 7.58722 12.413 8.33341 13.3335 8.33341ZM13.3335 11.6667C16.0949 11.6667 18.3335 9.42817 18.3335 6.66675C18.3335 3.90532 16.0949 1.66675 13.3335 1.66675C10.5721 1.66675 8.3335 3.90532 8.3335 6.66675C8.3335 9.42817 10.5721 11.6667 13.3335 11.6667Z" fill="#475569"/>
<path d="M8.54738 8.11914C9.00075 9.6148 10.1361 10.814 11.5915 11.3549L9.70531 13.241C8.72806 12.8466 7.56725 13.0454 6.77508 13.8376C5.98291 14.6298 5.78405 15.7906 6.17852 16.7678L4.85698 18.0894C4.7007 18.2456 4.48874 18.3334 4.26773 18.3334H2.08317C1.85305 18.3334 1.66649 18.1469 1.6665 17.9168L1.6666 15.3451C1.66661 15.1241 1.75441 14.9121 1.91068 14.7558L8.54738 8.11914Z" fill="#94A3B8"/>
</svg>
