<svg width="24" height="24" viewBox="0 0 24 24" fill="none" xmlns="http://www.w3.org/2000/svg">
<path d="M24 0H0V24H24V0Z" fill="white" fill-opacity="0.01"/>
<path fill-rule="evenodd" clip-rule="evenodd" d="M4 6C4 5.44772 4.44772 5 5 5H19C19.5523 5 20 5.44772 20 6V10C20 10.5523 19.5523 11 19 11H5C4.44772 11 4 10.5523 4 10V6Z" fill="#475569"/>
<path fill-rule="evenodd" clip-rule="evenodd" d="M4 14C4 13.4477 4.44772 13 5 13H19C19.5523 13 20 13.4477 20 14V18C20 18.5523 19.5523 19 19 19H5C4.44772 19 4 18.5523 4 18V14Z" fill="#94A3B8"/>
<path fill-rule="evenodd" clip-rule="evenodd" d="M22 22C21.4477 22 21 21.5523 21 21L21 3C21 2.44772 21.4477 2 22 2C22.5523 2 23 2.44772 23 3L23 21C23 21.5523 22.5523 22 22 22Z" fill="#475569"/>
<path fill-rule="evenodd" clip-rule="evenodd" d="M2 22C1.44772 22 1 21.5523 1 21L1 3C1 2.44772 1.44772 2 2 2C2.55228 2 3 2.44772 3 3L3 21C3 21.5523 2.55228 22 2 22Z" fill="#475569"/>
</svg>
