<svg width="24" height="24" viewBox="0 0 24 24" fill="none" xmlns="http://www.w3.org/2000/svg">
<path d="M24 0H0V24H24V0Z" fill="white" fill-opacity="0.01"/>
<path fill-rule="evenodd" clip-rule="evenodd" d="M5 3C5 2.44772 5.44772 2 6 2H18C18.5523 2 19 2.44772 19 3V8C19 8.55228 18.5523 9 18 9H6C5.44772 9 5 8.55228 5 8V3Z" fill="#475569"/>
<path fill-rule="evenodd" clip-rule="evenodd" d="M5 12C5 11.4477 5.44772 11 6 11H18C18.5523 11 19 11.4477 19 12V17C19 17.5523 18.5523 18 18 18H6C5.44772 18 5 17.5523 5 17V12Z" fill="#94A3B8"/>
<path fill-rule="evenodd" clip-rule="evenodd" d="M22 21C22 21.5523 21.5523 22 21 22L3 22C2.44772 22 2 21.5523 2 21C2 20.4477 2.44772 20 3 20L21 20C21.5523 20 22 20.4477 22 21Z" fill="#475569"/>
</svg>
