<svg width="24" height="24" viewBox="0 0 24 24" fill="none" xmlns="http://www.w3.org/2000/svg">
<path d="M24 0H0V24H24V0Z" fill="white" fill-opacity="0.01"/>
<path fill-rule="evenodd" clip-rule="evenodd" d="M5 16C5 15.4477 5.44772 15 6 15H18C18.5523 15 19 15.4477 19 16V21C19 21.5523 18.5523 22 18 22H6C5.44772 22 5 21.5523 5 21V16Z" fill="#475569"/>
<path fill-rule="evenodd" clip-rule="evenodd" d="M23 18.5C23 19.0523 22.5523 19.5 22 19.5L2 19.5C1.44771 19.5 1 19.0523 1 18.5C1 17.9477 1.44771 17.5 2 17.5L22 17.5C22.5523 17.5 23 17.9477 23 18.5Z" fill="#475569"/>
<path fill-rule="evenodd" clip-rule="evenodd" d="M23 5.5C23 6.05228 22.5523 6.5 22 6.5L2 6.5C1.44771 6.5 1 6.05228 1 5.5C1 4.94772 1.44771 4.5 2 4.5L22 4.5C22.5523 4.5 23 4.94772 23 5.5Z" fill="#475569"/>
<path fill-rule="evenodd" clip-rule="evenodd" d="M5 3C5 2.44772 5.44772 2 6 2H18C18.5523 2 19 2.44772 19 3V8C19 8.55228 18.5523 9 18 9H6C5.44772 9 5 8.55228 5 8V3Z" fill="#94A3B8"/>
</svg>
