<svg width="24" height="24" viewBox="0 0 24 24" fill="none" xmlns="http://www.w3.org/2000/svg">
<g clip-path="url(#clip0_7430_14063)">
<path d="M24 0H0V24H24V0Z" fill="white" fill-opacity="0.01"/>
<path fill-rule="evenodd" clip-rule="evenodd" d="M8 5C8 4.44772 8.44772 4 9 4H14C14.5523 4 15 4.44772 15 5V19C15 19.5523 14.5523 20 14 20H9C8.44772 20 8 19.5523 8 19V5Z" fill="#475569"/>
<path fill-rule="evenodd" clip-rule="evenodd" d="M17 5C17 4.44772 17.4477 4 18 4H23C23.5523 4 24 4.44772 24 5V19C24 19.5523 23.5523 20 23 20H18C17.4477 20 17 19.5523 17 19V5Z" fill="#94A3B8"/>
<path d="M3.56 15.9399L4.5 14.9999L2.38667 12.7735L7 12.7735L7 11.4401L2.38667 11.4401L4.5 9.4401L3.56 8.5001L-0.166666 12.1068L3.56 15.9399Z" fill="#475569"/>
</g>
<defs>
<clipPath id="clip0_7430_14063">
<rect width="24" height="24" fill="white"/>
</clipPath>
</defs>
</svg>
