<svg width="24" height="24" viewBox="0 0 24 24" fill="none" xmlns="http://www.w3.org/2000/svg">
<path d="M24 0H0V24H24V0Z" fill="white" fill-opacity="0.01"/>
<path fill-rule="evenodd" clip-rule="evenodd" d="M2 6C2 5.44772 2.44772 5 3 5H8C8.55228 5 9 5.44772 9 6V18C9 18.5523 8.55228 19 8 19H3C2.44772 19 2 18.5523 2 18V6Z" fill="#94A3B8"/>
<path fill-rule="evenodd" clip-rule="evenodd" d="M15 6C15 5.44772 15.4477 5 16 5H21C21.5523 5 22 5.44772 22 6V18C22 18.5523 21.5523 19 21 19H16C15.4477 19 15 18.5523 15 18V6Z" fill="#475569"/>
<path fill-rule="evenodd" clip-rule="evenodd" d="M12 22C11.4477 22 11 21.5523 11 21L11 3C11 2.44772 11.4477 2 12 2C12.5523 2 13 2.44772 13 3L13 21C13 21.5523 12.5523 22 12 22Z" fill="#475569"/>
</svg>
