<svg width="24" height="24" viewBox="0 0 24 24" fill="none" xmlns="http://www.w3.org/2000/svg">
<path d="M24 0H0V24H24V0Z" fill="white" fill-opacity="0.01"/>
<path fill-rule="evenodd" clip-rule="evenodd" d="M1 10C1 9.44772 1.44772 9 2 9L22 9C22.5523 9 23 9.44772 23 10C23 10.5523 22.5523 11 22 11L2 11C1.44772 11 1 10.5523 1 10Z" fill="#475569"/>
<path fill-rule="evenodd" clip-rule="evenodd" d="M4 7C4 6.44772 4.44772 6 5 6H10C10.5523 6 11 6.44772 11 7V19C11 19.5523 10.5523 20 10 20H5C4.44772 20 4 19.5523 4 19V7Z" fill="#94A3B8"/>
<path fill-rule="evenodd" clip-rule="evenodd" d="M13 5C13 4.44772 13.4477 4 14 4H19C19.5523 4 20 4.44772 20 5V17C20 17.5523 19.5523 18 19 18H14C13.4477 18 13 17.5523 13 17V5Z" fill="#475569"/>
</svg>
