<svg width="20" height="20" viewBox="0 0 20 20" xmlns="http://www.w3.org/2000/svg">
<path d="M3.33337 15.8333H16.6667V17.5H3.33337V15.8333ZM16.6667 2.5H3.33337V10.8333C3.33337 12.675 4.82504 14.1667 6.66671 14.1667H11.6667C13.5084 14.1667 15 12.675 15 10.8333V8.33333H16.6667C17.5917 8.33333 18.3334 7.58333 18.3334 6.66667V4.16667C18.3334 3.24167 17.5917 2.5 16.6667 2.5ZM13.3334 10.8333C13.3334 11.75 12.5834 12.5 11.6667 12.5H6.66671C5.75004 12.5 5.00004 11.75 5.00004 10.8333V4.16667H13.3334V10.8333ZM16.6667 6.66667H15V4.16667H16.6667V6.66667Z" fill="#475569"/>
</svg>
