<svg width="28" height="28" viewBox="0 0 28 28" fill="none" xmlns="http://www.w3.org/2000/svg">
        <path fill-rule="evenodd" clip-rule="evenodd"
              d="M14.0002 2C16.2092 2 18 3.94947 18 6.35427C18 6.51404 17.9919 6.67369 17.9758 6.8325L17.7177 9.37563C17.5083 11.4387 15.9068 13 14.0002 13C12.0935 13 10.4921 11.4387 10.2827 9.37563L10.0245 6.8325C9.78193 4.44225 11.3652 2.29046 13.5609 2.02634C13.7068 2.00879 13.8534 2 14.0002 2Z"
              fill="#475569"/>
        <path fill-rule="evenodd" clip-rule="evenodd"
              d="M5.14667 25.177V20.3372C5.14667 18.4319 6.3659 16.7403 8.1735 16.1377L11.7867 14.9333H16.2133L19.8265 16.1377C21.6341 16.7403 22.8533 18.4319 22.8533 20.3372V25.177C20.2023 25.7029 17.1917 26 14 26C10.8082 26 7.79771 25.7029 5.14667 25.177Z"
              fill="#94A3B8"/>
</svg>
