<svg width="20" height="20" viewBox="0 0 20 20" fill="none" xmlns="http://www.w3.org/2000/svg">
<path fill-rule="evenodd" clip-rule="evenodd" d="M17.5 10C17.5 14.1421 14.1421 17.5 10 17.5C5.85786 17.5 2.5 14.1421 2.5 10C2.5 5.85786 5.85786 2.5 10 2.5C14.1421 2.5 17.5 5.85786 17.5 10ZM11.0943 14.1205C11.0943 14.7242 10.605 15.2135 10.0013 15.2135C9.39769 15.2135 8.90833 14.7242 8.90833 14.1205C8.90833 13.5169 9.39769 13.0275 10.0013 13.0275C10.605 13.0275 11.0943 13.5169 11.0943 14.1205ZM7.20031 7.23167L8.83335 7.56476C8.96108 6.93854 9.40633 6.57822 10.0584 6.57822C10.6272 6.57822 11.0865 6.91365 11.1667 7.5293C11.2275 7.99611 11.1215 8.21324 10.658 8.68453C10.6389 8.704 10.5886 8.75453 10.5377 8.8057C10.4865 8.85722 10.4346 8.9094 10.4131 8.93119C9.56442 9.79327 9.16667 10.5467 9.16667 11.785H10.8333C10.8333 11.0536 11.0309 10.6793 11.6008 10.1005C11.6185 10.0825 11.664 10.0367 11.7119 9.98859C11.766 9.93419 11.8231 9.87679 11.8463 9.8532C12.6335 9.05278 12.959 8.38571 12.8194 7.31405C12.6219 5.79812 11.4081 4.91155 10.0584 4.91155C8.61731 4.91155 7.48696 5.82632 7.20031 7.23167Z" fill="#94A3B8"/>
<ellipse cx="10.0012" cy="14.1206" rx="1.093" ry="1.093" fill="#475569"/>
<path d="M8.83226 7.56483L7.19922 7.23175C7.48586 5.82639 8.61622 4.91162 10.0573 4.91162C11.407 4.91162 12.6209 5.79819 12.8183 7.31412C12.9579 8.38578 12.6324 9.05285 11.8452 9.85327C11.8015 9.89773 11.6374 10.0623 11.5997 10.1005C11.0298 10.6794 10.8322 11.0537 10.8322 11.785H9.16557C9.16557 10.5468 9.56333 9.79334 10.412 8.93126C10.4548 8.88782 10.6185 8.72367 10.6569 8.6846C11.1204 8.21331 11.2264 7.99618 11.1656 7.52937C11.0854 6.91372 10.6261 6.57829 10.0573 6.57829C9.40524 6.57829 8.95999 6.93861 8.83226 7.56483Z" fill="#475569"/>
</svg>
