<svg width="16" height="16" viewBox="0 0 16 16" fill="none" xmlns="http://www.w3.org/2000/svg">
<path fill-rule="evenodd" clip-rule="evenodd" d="M6.00078 2.3999L7.20078 3.5999L11.6008 3.5999C12.7053 3.5999 13.6008 4.49533 13.6008 5.5999V7.1999H13.92C14.5706 7.1999 15.0479 7.81129 14.8901 8.44244L13.7901 12.8424C13.6789 13.2876 13.2789 13.5999 12.82 13.5999H11.6028C11.6021 13.5999 11.6014 13.5999 11.6008 13.5999L2.80078 13.5999H2.3298C1.93731 13.5999 1.61504 13.3807 1.44943 13.0743C1.05074 12.7087 0.800781 12.1835 0.800781 11.5999L0.800781 4.3999C0.800781 3.29533 1.69621 2.3999 2.80078 2.3999H6.00078ZM12.0008 7.1999L4.2548 7.1999C3.8575 7.1999 3.49788 7.4351 3.33864 7.79908L2.40078 9.94276L2.40078 4.3999C2.40078 4.17899 2.57987 3.9999 2.80078 3.9999L5.33804 3.9999L6.06941 4.73127L6.53804 5.1999H7.20078L11.6008 5.1999C11.8217 5.1999 12.0008 5.37899 12.0008 5.5999V7.1999Z" fill="#475569"/>
</svg>
